BodoniModa-96ptBlack.ufo
<glyph name="comma" format="2">
  <advance width="677"/>
  <unicode hex="002C"/>
  <outline>
    <contour>
      <point x="76" y="-312" type="line"/>
      <point x="386" y="-312"/>
      <point x="594" y="-133"/>
      <point x="594" y="148" type="curve" smooth="yes"/>
      <point x="594" y="334"/>
      <point x="472" y="456"/>
      <point x="334" y="456" type="curve" smooth="yes"/>
      <point x="198" y="456"/>
      <point x="80" y="344"/>
      <point x="80" y="218" type="curve" smooth="yes"/>
      <point x="80" y="92"/>
      <point x="170" y="-20"/>
      <point x="316" y="-20" type="curve" smooth="yes"/>
      <point x="444" y="-20"/>
      <point x="579" y="94"/>
      <point x="579" y="244" type="curve"/>
      <point x="577" y="244" type="line"/>
      <point x="639" y="-110"/>
      <point x="390" y="-308"/>
      <point x="76" y="-308" type="curve"/>
    </contour>
  </outline>
</glyph>
<glyph name="A" format="2">
  <advance width="1659"/>
  <unicode hex="0041"/>
  <anchor x="746" y="0" name="bottom"/>
  <anchor x="1236" y="0" name="ogonek"/>
  <anchor x="842" y="1500" name="top"/>
  <outline>
    <contour>
      <point x="398" y="488" type="line"/>
      <point x="900" y="488" type="line"/>
      <point x="900" y="492" type="line"/>
      <point x="398" y="492" type="line"/>
    </contour>
    <contour>
      <point x="960" y="1530" type="line"/>
      <point x="764" y="1530" type="line"/>
      <point x="223" y="4" type="line"/>
      <point x="30" y="4" type="line"/>
      <point x="30" y="0" type="line"/>
      <point x="470" y="0" type="line"/>
      <point x="470" y="4" type="line"/>
      <point x="229" y="4" type="line"/>
      <point x="626" y="1126" type="line"/>
      <point x="989" y="4" type="line"/>
      <point x="850" y="4" type="line"/>
      <point x="850" y="0" type="line"/>
      <point x="1630" y="0" type="line"/>
      <point x="1630" y="4" type="line"/>
      <point x="1489" y="4" type="line"/>
    </contour>
  </outline>
</glyph>
<glyph name="B" format="2">
  <advance width="1529"/>
  <unicode hex="0042"/>
  <anchor x="746" y="0" name="bottom"/>
  <anchor x="784" y="1500" name="top"/>
  <outline>
    <contour>
      <point x="30" y="0" type="line"/>
      <point x="850" y="0" type="line" smooth="yes"/>
      <point x="1232" y="0"/>
      <point x="1450" y="100"/>
      <point x="1450" y="380" type="curve" smooth="yes"/>
      <point x="1450" y="680"/>
      <point x="1192" y="772"/>
      <point x="850" y="772" type="curve" smooth="yes"/>
      <point x="550" y="772" type="line"/>
      <point x="550" y="768" type="line"/>
      <point x="750" y="768" type="line" smooth="yes"/>
      <point x="902" y="768"/>
      <point x="990" y="658"/>
      <point x="990" y="420" type="curve" smooth="yes"/>
      <point x="990" y="182"/>
      <point x="902" y="4"/>
      <point x="750" y="4" type="curve" smooth="yes"/>
      <point x="30" y="4" type="line"/>
    </contour>
    <contour>
      <point x="210" y="2" type="line"/>
      <point x="640" y="2" type="line"/>
      <point x="640" y="1498" type="line"/>
      <point x="210" y="1498" type="line"/>
    </contour>
    <contour>
      <point x="550" y="768" type="line"/>
      <point x="810" y="768" type="line" smooth="yes"/>
      <point x="1192" y="768"/>
      <point x="1390" y="890"/>
      <point x="1390" y="1130" type="curve" smooth="yes"/>
      <point x="1390" y="1390"/>
      <point x="1172" y="1500"/>
      <point x="810" y="1500" type="curve" smooth="yes"/>
      <point x="30" y="1500" type="line"/>
      <point x="30" y="1496" type="line"/>
      <point x="730" y="1496" type="line" smooth="yes"/>
      <point x="862" y="1496"/>
      <point x="950" y="1348"/>
      <point x="950" y="1110" type="curve" smooth="yes"/>
      <point x="950" y="872"/>
      <point x="862" y="772"/>
      <point x="730" y="772" type="curve" smooth="yes"/>
      <point x="550" y="772" type="line"/>
    </contour>
  </outline>
</glyph>
<glyph name="C" format="2">
  <advance width="1469"/>
  <unicode hex="0043"/>
  <anchor x="866" y="-10" name="bottom"/>
  <anchor x="840" y="1500" name="top"/>
  <outline>
    <contour>
      <point x="840" y="-20" type="curve" smooth="yes"/>
      <point x="975" y="-20"/>
      <point x="1079" y="26"/>
      <point x="1163" y="104" type="curve"/>
      <point x="1386" y="0" type="line"/>
      <point x="1390" y="0" type="line"/>
      <point x="1390" y="470" type="line"/>
      <point x="1384" y="470" type="line"/>
      <point x="1272" y="206"/>
      <point x="1128" y="-10"/>
      <point x="860" y="-10" type="curve" smooth="yes"/>
      <point x="612" y="-10"/>
      <point x="550" y="386"/>
      <point x="550" y="750" type="curve" smooth="yes"/>
      <point x="550" y="1114"/>
      <point x="612" y="1510"/>
      <point x="860" y="1510" type="curve" smooth="yes"/>
      <point x="1086" y="1510"/>
      <point x="1228" y="1304"/>
      <point x="1362" y="1030" type="curve"/>
      <point x="1370" y="1030" type="line"/>
      <point x="1370" y="1500" type="line"/>
      <point x="1366" y="1500" type="line"/>
      <point x="1120" y="1410" type="line"/>
      <point x="1044" y="1480"/>
      <point x="954" y="1520"/>
      <point x="840" y="1520" type="curve" smooth="yes"/>
      <point x="354" y="1520"/>
      <point x="80" y="1196"/>
      <point x="80" y="750" type="curve" smooth="yes"/>
      <point x="80" y="304"/>
      <point x="354" y="-20"/>
    </contour>
  </outline>
</glyph>
<glyph name="K" format="2">
  <advance width="1709"/>
  <unicode hex="004B"/>
  <anchor x="858" y="0" name="bottom"/>
  <anchor x="884" y="1500" name="top"/>
  <outline>
    <contour>
      <point x="344" y="434" type="line"/>
      <point x="350" y="434" type="line"/>
      <point x="1378" y="1496" type="line"/>
      <point x="1610" y="1496" type="line"/>
      <point x="1610" y="1500" type="line"/>
      <point x="1130" y="1500" type="line"/>
      <point x="1130" y="1496" type="line"/>
      <point x="1372" y="1496" type="line"/>
    </contour>
    <contour>
      <point x="30" y="0" type="line"/>
      <point x="800" y="0" type="line"/>
      <point x="800" y="4" type="line"/>
      <point x="640" y="4" type="line"/>
      <point x="640" y="1496" type="line"/>
      <point x="840" y="1496" type="line"/>
      <point x="840" y="1500" type="line"/>
      <point x="30" y="1500" type="line"/>
      <point x="30" y="1496" type="line"/>
      <point x="210" y="1496" type="line"/>
      <point x="210" y="4" type="line"/>
      <point x="30" y="4" type="line"/>
    </contour>
    <contour>
      <point x="880" y="0" type="line"/>
      <point x="1700" y="0" type="line"/>
      <point x="1700" y="4" type="line"/>
      <point x="1542" y="4" type="line"/>
      <point x="934" y="1042" type="line"/>
      <point x="644" y="738" type="line"/>
      <point x="1062" y="4" type="line"/>
      <point x="880" y="4" type="line"/>
    </contour>
  </outline>
</glyph>
<glyph name="L" format="2">
  <advance width="1319"/>
  <unicode hex="004C"/>
  <anchor x="716" y="0" name="bottom"/>
  <anchor x="716" y="0" name="cedilla"/>
  <anchor x="434" y="750" name="center"/>
  <anchor x="414" y="1500" name="top"/>
  <anchor x="789" y="921" name="topright"/>
  <outline>
    <contour>
      <point x="30" y="0" type="line"/>
      <point x="1280" y="0" type="line"/>
      <point x="1280" y="450" type="line"/>
      <point x="1276" y="450" type="line"/>
      <point x="1216" y="196"/>
      <point x="1014" y="4"/>
      <point x="740" y="4" type="curve" smooth="yes"/>
      <point x="640" y="4" type="line"/>
      <point x="640" y="1496" type="line"/>
      <point x="820" y="1496" type="line"/>
      <point x="820" y="1500" type="line"/>
      <point x="30" y="1500" type="line"/>
      <point x="30" y="1496" type="line"/>
      <point x="210" y="1496" type="line"/>
      <point x="210" y="4" type="line"/>
      <point x="30" y="4" type="line"/>
    </contour>
  </outline>
</glyph>
<glyph name="V" format="2">
  <advance width="1639"/>
  <unicode hex="0056"/>
  <anchor x="821" y="0" name="bottom"/>
  <anchor x="924" y="1500" name="top"/>
  <outline>
    <contour>
      <point x="1620" y="1500" type="line"/>
      <point x="1180" y="1500" type="line"/>
      <point x="1180" y="1496" type="line"/>
      <point x="1423" y="1496" type="line"/>
      <point x="1024" y="376" type="line"/>
      <point x="661" y="1496" type="line"/>
      <point x="880" y="1496" type="line"/>
      <point x="880" y="1500" type="line"/>
      <point x="20" y="1500" type="line"/>
      <point x="20" y="1496" type="line"/>
      <point x="161" y="1496" type="line"/>
      <point x="690" y="-30" type="line"/>
      <point x="886" y="-30" type="line"/>
      <point x="1427" y="1496" type="line"/>
      <point x="1620" y="1496" type="line"/>
    </contour>
  </outline>
</glyph>
<glyph name="c" format="2">
  <advance width="1080"/>
  <unicode hex="0063"/>
  <anchor x="556" y="0" name="bottom"/>
  <anchor x="566" y="920" name="top"/>
  <outline>
    <contour>
      <point x="568" y="-20" type="curve" smooth="yes"/>
      <point x="820" y="-20"/>
      <point x="956" y="98"/>
      <point x="1008" y="287" type="curve"/>
      <point x="1004" y="287" type="line"/>
      <point x="956" y="115"/>
      <point x="837" y="14"/>
      <point x="692" y="14" type="curve" smooth="yes"/>
      <point x="539" y="14"/>
      <point x="502" y="231"/>
      <point x="502" y="460" type="curve" smooth="yes"/>
      <point x="502" y="648"/>
      <point x="512" y="920"/>
      <point x="665" y="920" type="curve" smooth="yes"/>
      <point x="814" y="920"/>
      <point x="1012" y="811"/>
      <point x="1012" y="656" type="curve"/>
      <point x="1014" y="656" type="line"/>
      <point x="1014" y="776"/>
      <point x="915" y="847"/>
      <point x="808" y="847" type="curve" smooth="yes"/>
      <point x="697" y="847"/>
      <point x="594" y="774"/>
      <point x="594" y="654" type="curve" smooth="yes"/>
      <point x="594" y="524"/>
      <point x="708" y="457"/>
      <point x="808" y="457" type="curve" smooth="yes"/>
      <point x="919" y="457"/>
      <point x="1016" y="534"/>
      <point x="1016" y="656" type="curve" smooth="yes"/>
      <point x="1016" y="816"/>
      <point x="828" y="939"/>
      <point x="564" y="939" type="curve" smooth="yes"/>
      <point x="242" y="939"/>
      <point x="51" y="770"/>
      <point x="51" y="460" type="curve" smooth="yes"/>
      <point x="51" y="110"/>
      <point x="286" y="-20"/>
    </contour>
  </outline>
</glyph>
<glyph name="d" format="2">
  <advance width="1325"/>
  <unicode hex="0064"/>
  <anchor x="676" y="0" name="bottom"/>
  <anchor x="983" y="0" name="cedilla"/>
  <anchor x="663" y="460" name="center"/>
  <anchor x="456" y="920" name="top"/>
  <anchor x="1155" y="920" name="topright"/>
  <outline>
    <contour>
      <point x="474" y="-20" type="curve" smooth="yes"/>
      <point x="659" y="-20"/>
      <point x="765" y="117"/>
      <point x="786" y="361" type="curve"/>
      <point x="786" y="0" type="line"/>
      <point x="1306" y="0" type="line"/>
      <point x="1306" y="4" type="line"/>
      <point x="1166" y="4" type="line"/>
      <point x="1166" y="1500" type="line"/>
      <point x="646" y="1500" type="line"/>
      <point x="646" y="1496" type="line"/>
      <point x="786" y="1496" type="line"/>
      <point x="786" y="554" type="line"/>
      <point x="765" y="799"/>
      <point x="657" y="938"/>
      <point x="474" y="938" type="curve" smooth="yes"/>
      <point x="256" y="938"/>
      <point x="50" y="758"/>
      <point x="50" y="458" type="curve" smooth="yes"/>
      <point x="50" y="158"/>
      <point x="256" y="-20"/>
    </contour>
    <contour>
      <point x="564" y="12" type="curve" smooth="yes"/>
      <point x="496" y="12"/>
      <point x="480" y="150"/>
      <point x="480" y="458" type="curve" smooth="yes"/>
      <point x="480" y="766"/>
      <point x="496" y="906"/>
      <point x="564" y="906" type="curve" smooth="yes"/>
      <point x="664" y="906"/>
      <point x="786" y="766"/>
      <point x="786" y="458" type="curve" smooth="yes"/>
      <point x="786" y="150"/>
      <point x="664" y="12"/>
    </contour>
  </outline>
</glyph>
<glyph name="l" format="2">
  <advance width="779"/>
  <unicode hex="006C"/>
  <anchor x="396" y="0" name="bottom"/>
  <anchor x="396" y="0" name="cedilla"/>
  <anchor x="392" y="800" name="center"/>
  <anchor x="394" y="1500" name="top"/>
  <anchor x="553" y="920" name="topright"/>
  <outline>
    <contour>
      <point x="580" y="1500" type="line"/>
      <point x="20" y="1500" type="line"/>
      <point x="20" y="1496" type="line"/>
      <point x="200" y="1496" type="line"/>
      <point x="200" y="4" type="line"/>
      <point x="20" y="4" type="line"/>
      <point x="20" y="0" type="line"/>
      <point x="760" y="0" type="line"/>
      <point x="760" y="4" type="line"/>
      <point x="580" y="4" type="line"/>
    </contour>
  </outline>
</glyph>
<glyph name="s" format="2">
  <advance width="919"/>
  <unicode hex="0073"/>
  <anchor x="508" y="-20" name="bottom"/>
  <anchor x="456" y="920" name="top"/>
  <outline>
    <contour>
      <point x="70" y="-20" type="line"/>
      <point x="74" y="-20" type="line"/>
      <point x="228" y="79" type="line"/>
      <point x="300" y="15"/>
      <point x="388" y="-20"/>
      <point x="498" y="-20" type="curve" smooth="yes"/>
      <point x="672" y="-20"/>
      <point x="880" y="66"/>
      <point x="880" y="304" type="curve" smooth="yes"/>
      <point x="880" y="700"/>
      <point x="260" y="622"/>
      <point x="260" y="822" type="curve" smooth="yes"/>
      <point x="260" y="876"/>
      <point x="308" y="934"/>
      <point x="424" y="934" type="curve" smooth="yes"/>
      <point x="602" y="934"/>
      <point x="694" y="816"/>
      <point x="800" y="660" type="curve"/>
      <point x="804" y="660" type="line"/>
      <point x="804" y="940" type="line"/>
      <point x="800" y="940" type="line"/>
      <point x="645" y="859" type="line"/>
      <point x="587" y="906"/>
      <point x="516" y="938"/>
      <point x="424" y="938" type="curve" smooth="yes"/>
      <point x="234" y="938"/>
      <point x="84" y="818"/>
      <point x="84" y="630" type="curve" smooth="yes"/>
      <point x="84" y="218"/>
      <point x="694" y="304"/>
      <point x="694" y="110" type="curve" smooth="yes"/>
      <point x="694" y="48"/>
      <point x="638" y="-16"/>
      <point x="498" y="-16" type="curve" smooth="yes"/>
      <point x="296" y="-16"/>
      <point x="168" y="100"/>
      <point x="74" y="320" type="curve"/>
      <point x="70" y="320" type="line"/>
    </contour>
  </outline>
</glyph>
<glyph name="v" format="2">
  <advance width="1197"/>
  <unicode hex="0076"/>
  <anchor x="616" y="0" name="bottom"/>
  <anchor x="676" y="920" name="top"/>
  <outline>
    <contour>
      <point x="1208" y="920" type="line"/>
      <point x="820" y="920" type="line"/>
      <point x="820" y="916" type="line"/>
      <point x="1014" y="916" type="line"/>
      <point x="758" y="274" type="line"/>
      <point x="541" y="916" type="line"/>
      <point x="672" y="916" type="line"/>
      <point x="672" y="920" type="line"/>
      <point x="-10" y="920" type="line"/>
      <point x="-10" y="916" type="line"/>
      <point x="122" y="916" type="line"/>
      <point x="506" y="-20" type="line"/>
      <point x="646" y="-20" type="line"/>
      <point x="1020" y="916" type="line"/>
      <point x="1208" y="916" type="line"/>
    </contour>
  </outline>
</glyph>
<glyph name="w" format="2">
  <advance width="1769"/>
  <unicode hex="0077"/>
  <anchor x="866" y="0" name="bottom"/>
  <anchor x="946" y="920" name="top"/>
  <outline>
    <contour>
      <point x="1780" y="920" type="line"/>
      <point x="1352" y="920" type="line"/>
      <point x="1352" y="916" type="line"/>
      <point x="1571" y="916" type="line"/>
      <point x="1382" y="348" type="line"/>
      <point x="1210" y="940" type="line"/>
      <point x="940" y="940" type="line"/>
      <point x="690" y="296" type="line"/>
      <point x="529" y="916" type="line"/>
      <point x="712" y="916" type="line"/>
      <point x="712" y="920" type="line"/>
      <point x="-10" y="920" type="line"/>
      <point x="-10" y="916" type="line"/>
      <point x="121" y="916" type="line"/>
      <point x="426" y="-20" type="line"/>
      <point x="572" y="-20" type="line"/>
      <point x="844" y="680" type="line"/>
      <point x="1118" y="-20" type="line"/>
      <point x="1264" y="-20" type="line"/>
      <point x="1577" y="916" type="line"/>
      <point x="1780" y="916" type="line"/>
    </contour>
  </outline>
</glyph>
<glyph name="braceleft" format="2">
  <advance width="783"/>
  <unicode hex="007B"/>
  <outline>
    <contour>
      <point x="724" y="1560" type="line"/>
      <point x="254" y="1560"/>
      <point x="110" y="1460"/>
      <point x="110" y="1242" type="curve" smooth="yes"/>
      <point x="110" y="1008"/>
      <point x="230" y="918"/>
      <point x="230" y="792" type="curve" smooth="yes"/>
      <point x="230" y="710"/>
      <point x="170" y="654"/>
      <point x="110" y="634" type="curve"/>
      <point x="110" y="628" type="line"/>
      <point x="170" y="608"/>
      <point x="230" y="552"/>
      <point x="230" y="470" type="curve" smooth="yes"/>
      <point x="230" y="344"/>
      <point x="110" y="254"/>
      <point x="110" y="20" type="curve" smooth="yes"/>
      <point x="110" y="-198"/>
      <point x="254" y="-300"/>
      <point x="724" y="-300" type="curve"/>
      <point x="724" y="-296" type="line"/>
      <point x="600" y="-296"/>
      <point x="536" y="-158"/>
      <point x="536" y="-32" type="curve" smooth="yes"/>
      <point x="536" y="80"/>
      <point x="604" y="180"/>
      <point x="604" y="340" type="curve" smooth="yes"/>
      <point x="604" y="505"/>
      <point x="500" y="591"/>
      <point x="120" y="631" type="curve"/>
      <point x="500" y="671"/>
      <point x="604" y="757"/>
      <point x="604" y="922" type="curve" smooth="yes"/>
      <point x="604" y="1082"/>
      <point x="536" y="1182"/>
      <point x="536" y="1294" type="curve" smooth="yes"/>
      <point x="536" y="1420"/>
      <point x="600" y="1556"/>
      <point x="724" y="1556" type="curve"/>
    </contour>
  </outline>
</glyph>
<glyph name="braceright" format="2">
  <advance width="783"/>
  <unicode hex="007D"/>
  <outline>
    <contour>
      <point x="674" y="628" type="curve"/>
      <point x="674" y="632" type="line"/>
      <point x="614" y="652"/>
      <point x="554" y="708"/>
      <point x="554" y="790" type="curve" smooth="yes"/>
      <point x="554" y="916"/>
      <point x="674" y="1006"/>
      <point x="674" y="1240" type="curve" smooth="yes"/>
      <point x="674" y="1458"/>
      <point x="530" y="1560"/>
      <point x="60" y="1560" type="curve"/>
      <point x="60" y="1556" type="line"/>
      <point x="184" y="1556"/>
      <point x="248" y="1418"/>
      <point x="248" y="1292" type="curve" smooth="yes"/>
      <point x="248" y="1180"/>
      <point x="180" y="1080"/>
      <point x="180" y="920" type="curve" smooth="yes"/>
      <point x="180" y="754"/>
      <point x="286" y="668"/>
    </contour>
    <contour>
      <point x="60" y="-300" type="line"/>
      <point x="530" y="-300"/>
      <point x="674" y="-200"/>
      <point x="674" y="18" type="curve" smooth="yes"/>
      <point x="674" y="252"/>
      <point x="554" y="342"/>
      <point x="554" y="468" type="curve" smooth="yes"/>
      <point x="554" y="550"/>
      <point x="614" y="606"/>
      <point x="674" y="626" type="curve"/>
      <point x="674" y="630" type="line"/>
      <point x="286" y="590"/>
      <point x="180" y="504"/>
      <point x="180" y="338" type="curve" smooth="yes"/>
      <point x="180" y="178"/>
      <point x="248" y="78"/>
      <point x="248" y="-34" type="curve" smooth="yes"/>
      <point x="248" y="-160"/>
      <point x="184" y="-296"/>
      <point x="60" y="-296" type="curve"/>
    </contour>
  </outline>
</glyph>
<glyph name="asciitilde" format="2">
  <advance width="1375"/>
  <unicode hex="007E"/>
  <outline>
    <contour>
      <point x="878" y="626" type="curve" smooth="yes"/>
      <point x="1076" y="626"/>
      <point x="1176" y="790"/>
      <point x="1176" y="1020" type="curve"/>
      <point x="1172" y="1020" type="line"/>
      <point x="1172" y="936"/>
      <point x="1096" y="892"/>
      <point x="970" y="892" type="curve" smooth="yes"/>
      <point x="758" y="892"/>
      <point x="718" y="1080"/>
      <point x="498" y="1080" type="curve" smooth="yes"/>
      <point x="300" y="1080"/>
      <point x="200" y="916"/>
      <point x="200" y="686" type="curve"/>
      <point x="204" y="686" type="line"/>
      <point x="204" y="770"/>
      <point x="280" y="814"/>
      <point x="386" y="814" type="curve" smooth="yes"/>
      <point x="612" y="814"/>
      <point x="624" y="626"/>
    </contour>
  </outline>
</glyph>
<glyph name="exclamdown" format="2">
  <advance width="878"/>
  <unicode hex="00A1"/>
  <outline>
    <contour>
      <point x="442" y="-476" type="curve" smooth="yes"/>
      <point x="596" y="-476"/>
      <point x="680" y="-368"/>
      <point x="680" y="-236" type="curve" smooth="yes"/>
      <point x="680" y="-224"/>
      <point x="682" y="-212"/>
      <point x="680" y="-198" type="curve" smooth="yes"/>
      <point x="658" y="34"/>
      <point x="444" y="224"/>
      <point x="444" y="424" type="curve"/>
      <point x="440" y="424" type="line"/>
      <point x="440" y="224"/>
      <point x="226" y="34"/>
      <point x="204" y="-198" type="curve" smooth="yes"/>
      <point x="202" y="-212"/>
      <point x="202" y="-224"/>
      <point x="202" y="-236" type="curve" smooth="yes"/>
      <point x="202" y="-368"/>
      <point x="288" y="-476"/>
    </contour>
    <contour>
      <point x="440" y="580" type="curve" smooth="yes"/>
      <point x="572" y="580"/>
      <point x="680" y="688"/>
      <point x="680" y="820" type="curve" smooth="yes"/>
      <point x="680" y="952"/>
      <point x="572" y="1060"/>
      <point x="440" y="1060" type="curve" smooth="yes"/>
      <point x="308" y="1060"/>
      <point x="200" y="952"/>
      <point x="200" y="820" type="curve" smooth="yes"/>
      <point x="200" y="688"/>
      <point x="308" y="580"/>
    </contour>
  </outline>
</glyph>
<glyph name="ordfeminine" format="2">
  <advance width="804"/>
  <unicode hex="00AA"/>
  <anchor x="348.4" y="964" name="bottom"/>
  <anchor x="658.6" y="964" name="ogonek"/>
  <anchor x="354.4" y="1516" name="top"/>
  <outline>
    <contour>
      <point x="553.6" y="952" type="curve" smooth="yes"/>
      <point x="647.2" y="952"/>
      <point x="721.6" y="979"/>
      <point x="749.2" y="1039.6" type="curve"/>
      <point x="746.8" y="1039.6" type="line"/>
      <point x="721.6" y="989.8"/>
      <point x="680.2" y="977.2"/>
      <point x="661.6" y="977.2" type="curve" smooth="yes"/>
      <point x="632.8" y="977.2"/>
      <point x="617.2" y="995.2"/>
      <point x="617.2" y="1019.2" type="curve" smooth="yes"/>
      <point x="617.2" y="1329.4" type="line" smooth="yes"/>
      <point x="617.2" y="1456.6"/>
      <point x="508.6" y="1525.6"/>
      <point x="307.6" y="1525.6" type="curve" smooth="yes"/>
      <point x="198.4" y="1525.6"/>
      <point x="70" y="1495.6"/>
      <point x="70" y="1391.2" type="curve" smooth="yes"/>
      <point x="70" y="1330"/>
      <point x="122.8" y="1289.2"/>
      <point x="195.4" y="1289.2" type="curve" smooth="yes"/>
      <point x="264.4" y="1289.2"/>
      <point x="323.8" y="1327.6"/>
      <point x="323.8" y="1393.6" type="curve" smooth="yes"/>
      <point x="323.8" y="1458.4"/>
      <point x="265.6" y="1493.2"/>
      <point x="195.4" y="1493.2" type="curve" smooth="yes"/>
      <point x="127.6" y="1493.2"/>
      <point x="71.2" y="1450"/>
      <point x="71.2" y="1391.2" type="curve"/>
      <point x="72.4" y="1391.2" type="line"/>
      <point x="72.4" y="1493.2"/>
      <point x="203.8" y="1520.2"/>
      <point x="271.6" y="1520.2" type="curve" smooth="yes"/>
      <point x="367.6" y="1520.2"/>
      <point x="389.2" y="1415.8"/>
      <point x="389.2" y="1329.4" type="curve" smooth="yes"/>
      <point x="389.2" y="1060" type="line" smooth="yes"/>
      <point x="389.2" y="989.2"/>
      <point x="455.2" y="952"/>
    </contour>
    <contour>
      <point x="199" y="952" type="curve" smooth="yes"/>
      <point x="320.8" y="952"/>
      <point x="391.6" y="1031.2"/>
      <point x="391.6" y="1180.6" type="curve"/>
      <point x="389.2" y="1180.6" type="line"/>
      <point x="389.2" y="1082.8"/>
      <point x="361" y="1031.2"/>
      <point x="323.8" y="1031.2" type="curve" smooth="yes"/>
      <point x="284.8" y="1031.2"/>
      <point x="270.4" y="1069.6"/>
      <point x="270.4" y="1123.6" type="curve" smooth="yes"/>
      <point x="270.4" y="1177"/>
      <point x="303.4" y="1264"/>
      <point x="379" y="1264" type="curve" smooth="yes"/>
      <point x="445" y="1264" type="line"/>
      <point x="445" y="1266.4" type="line"/>
      <point x="296.8" y="1266.4" type="line" smooth="yes"/>
      <point x="126.4" y="1266.4"/>
      <point x="28" y="1207"/>
      <point x="28" y="1100.2" type="curve" smooth="yes"/>
      <point x="28" y="1009"/>
      <point x="95.2" y="952"/>
    </contour>
  </outline>
</glyph>
<glyph name="registered" format="2">
  <advance width="1739"/>
  <unicode hex="00AE"/>
  <anchor x="911.6" y="296" name="bottom"/>
  <anchor x="664.4" y="296" name="cedilla"/>
  <anchor x="826.4" y="1196" name="top"/>
  <outline>
    <contour>
      <point x="870" y="-20" type="curve" smooth="yes"/>
      <point x="1296" y="-20"/>
      <point x="1640" y="324"/>
      <point x="1640" y="750" type="curve" smooth="yes"/>
      <point x="1640" y="1176"/>
      <point x="1296" y="1520"/>
      <point x="870" y="1520" type="curve" smooth="yes"/>
      <point x="444" y="1520"/>
      <point x="100" y="1176"/>
      <point x="100" y="750" type="curve" smooth="yes"/>
      <point x="100" y="324"/>
      <point x="444" y="-20"/>
    </contour>
    <contour>
      <point x="870" y="-16" type="curve" smooth="yes"/>
      <point x="448" y="-16"/>
      <point x="104" y="328"/>
      <point x="104" y="750" type="curve" smooth="yes"/>
      <point x="104" y="1172"/>
      <point x="448" y="1516"/>
      <point x="870" y="1516" type="curve" smooth="yes"/>
      <point x="1292" y="1516"/>
      <point x="1636" y="1172"/>
      <point x="1636" y="750" type="curve" smooth="yes"/>
      <point x="1636" y="328"/>
      <point x="1292" y="-16"/>
    </contour>
    <contour>
      <point x="1172" y="284" type="curve" smooth="yes"/>
      <point x="1263" y="284"/>
      <point x="1333" y="303"/>
      <point x="1352" y="314" type="curve"/>
      <point x="1351" y="315" type="line"/>
      <point x="1334" y="307"/>
      <point x="1305" y="298"/>
      <point x="1280" y="298" type="curve" smooth="yes"/>
      <point x="1113" y="298"/>
      <point x="1395" y="759"/>
      <point x="946" y="759" type="curve"/>
      <point x="1135" y="771"/>
      <point x="1250" y="834"/>
      <point x="1250" y="974" type="curve" smooth="yes"/>
      <point x="1250" y="1130"/>
      <point x="1095" y="1196"/>
      <point x="878" y="1196" type="curve" smooth="yes"/>
      <point x="434" y="1196" type="line"/>
      <point x="434" y="1194" type="line"/>
      <point x="542" y="1194" type="line"/>
      <point x="542" y="298" type="line"/>
      <point x="434" y="298" type="line"/>
      <point x="434" y="296" type="line"/>
      <point x="908" y="296" type="line"/>
      <point x="908" y="298" type="line"/>
      <point x="800" y="298" type="line"/>
      <point x="800" y="757" type="line"/>
      <point x="824" y="757" type="line" smooth="yes"/>
      <point x="1119" y="757"/>
      <point x="796" y="284"/>
    </contour>
    <contour>
      <point x="800" y="759" type="line"/>
      <point x="800" y="1194" type="line"/>
      <point x="818" y="1194" type="line" smooth="yes"/>
      <point x="933" y="1194"/>
      <point x="986" y="1129"/>
      <point x="986" y="974" type="curve" smooth="yes"/>
      <point x="986" y="819"/>
      <point x="933" y="759"/>
      <point x="818" y="759" type="curve" smooth="yes"/>
    </contour>
  </outline>
</glyph>
<glyph name="micro" format="2">
  <advance width="1309"/>
  <unicode hex="00B5"/>
  <anchor x="656" y="0" name="bottom"/>
  <anchor x="968" y="0" name="ogonek"/>
  <anchor x="626" y="920" name="top"/>
  <outline>
    <contour>
      <point x="1150" y="920" type="line"/>
      <point x="650" y="920" type="line"/>
      <point x="650" y="916" type="line"/>
      <point x="770" y="916" type="line"/>
      <point x="770" y="474" type="line" smooth="yes"/>
      <point x="770" y="292"/>
      <point x="724" y="76"/>
      <point x="612" y="76" type="curve" smooth="yes"/>
      <point x="556" y="76"/>
      <point x="540" y="96"/>
      <point x="540" y="264" type="curve" smooth="yes"/>
      <point x="540" y="920" type="line"/>
      <point x="20" y="920" type="line"/>
      <point x="20" y="916" type="line"/>
      <point x="160" y="916" type="line"/>
      <point x="160" y="-242" type="line" smooth="yes"/>
      <point x="160" y="-422"/>
      <point x="319" y="-520"/>
      <point x="490" y="-520" type="curve" smooth="yes"/>
      <point x="636" y="-520"/>
      <point x="717" y="-438"/>
      <point x="717" y="-330" type="curve" smooth="yes"/>
      <point x="717" y="-224"/>
      <point x="640" y="-146"/>
      <point x="534" y="-146" type="curve" smooth="yes"/>
      <point x="428" y="-146"/>
      <point x="351" y="-226"/>
      <point x="351" y="-322" type="curve" smooth="yes"/>
      <point x="351" y="-409"/>
      <point x="404" y="-499"/>
      <point x="474" y="-515" type="curve"/>
      <point x="309" y="-507"/>
      <point x="164" y="-414"/>
      <point x="164" y="-242" type="curve" smooth="yes"/>
      <point x="164" y="214" type="line"/>
      <point x="181" y="76"/>
      <point x="259" y="-20"/>
      <point x="444" y="-20" type="curve" smooth="yes"/>
      <point x="685" y="-20"/>
      <point x="754" y="185"/>
      <point x="770" y="373" type="curve"/>
      <point x="770" y="0" type="line"/>
      <point x="1290" y="0" type="line"/>
      <point x="1290" y="4" type="line"/>
      <point x="1150" y="4" type="line"/>
    </contour>
  </outline>
</glyph>
<glyph name="guillemetright" format="2">
  <advance width="1528"/>
  <unicode hex="00BB"/>
  <outline>
    <contour>
      <point x="698" y="290" type="line"/>
      <point x="1478" y="770" type="line"/>
      <point x="1478" y="780" type="line"/>
      <point x="698" y="1260" type="line"/>
      <point x="696" y="1258" type="line"/>
      <point x="1026" y="774" type="line"/>
      <point x="696" y="292" type="line"/>
    </contour>
    <contour>
      <point x="138" y="290" type="line"/>
      <point x="918" y="770" type="line"/>
      <point x="918" y="780" type="line"/>
      <point x="138" y="1260" type="line"/>
      <point x="136" y="1258" type="line"/>
      <point x="426" y="774" type="line"/>
      <point x="136" y="292" type="line"/>
    </contour>
  </outline>
</glyph>
<glyph name="onequarter" format="2">
  <advance width="1401"/>
  <unicode hex="00BC"/>
  <outline>
    <contour>
      <point x="80" y="-200" type="line"/>
      <point x="84" y="-200" type="line"/>
      <point x="1052" y="1300" type="line"/>
      <point x="1048" y="1300" type="line"/>
    </contour>
    <contour>
      <point x="44" y="712" type="line"/>
      <point x="590" y="712" type="line"/>
      <point x="590" y="714.4" type="line"/>
      <point x="44" y="714.4" type="line"/>
    </contour>
    <contour>
      <point x="846" y="-206" type="line"/>
      <point x="1308" y="-206" type="line"/>
      <point x="1308" y="-203.6" type="line"/>
      <point x="1218" y="-203.6" type="line"/>
      <point x="1218" y="694" type="line"/>
      <point x="1038" y="694" type="line"/>
      <point x="582" y="50.8" type="line"/>
      <point x="1350" y="50.8" type="line"/>
      <point x="1350" y="53.2" type="line"/>
      <point x="586.8" y="53.2" type="line"/>
      <point x="960" y="578.8" type="line"/>
      <point x="960" y="-203.6" type="line"/>
      <point x="846" y="-203.6" type="line"/>
    </contour>
    <contour>
      <point x="200" y="713.2" type="line"/>
      <point x="458" y="713.2" type="line"/>
      <point x="458" y="1612" type="line"/>
      <point x="64.4" y="1612" type="line"/>
      <point x="64.4" y="1609.6" type="line"/>
      <point x="200" y="1609.6" type="line"/>
    </contour>
  </outline>
</glyph>
<glyph name="threequarters" format="2">
  <advance width="1521"/>
  <unicode hex="00BE"/>
  <outline>
    <contour>
      <point x="200" y="-200" type="line"/>
      <point x="204" y="-200" type="line"/>
      <point x="1172" y="1300" type="line"/>
      <point x="1168" y="1300" type="line"/>
    </contour>
    <contour>
      <point x="347.2" y="696" type="curve" smooth="yes"/>
      <point x="516.4" y="696"/>
      <point x="707.2" y="792"/>
      <point x="707.2" y="948" type="curve" smooth="yes"/>
      <point x="707.2" y="1080.6"/>
      <point x="554.8" y="1194.6"/>
      <point x="265.6" y="1194.6" type="curve"/>
      <point x="265.6" y="1192.8" type="line"/>
      <point x="408.4" y="1192.8"/>
      <point x="442" y="1048.8"/>
      <point x="442" y="960" type="curve" smooth="yes"/>
      <point x="442" y="811.2"/>
      <point x="400" y="705.6"/>
      <point x="299.2" y="705.6" type="curve" smooth="yes"/>
      <point x="163.6" y="705.6"/>
      <point x="42.4" y="811.8"/>
      <point x="42.4" y="928.8" type="curve"/>
      <point x="41.2" y="928.8" type="line"/>
      <point x="41.2" y="868.8"/>
      <point x="103.6" y="816"/>
      <point x="168.4" y="816" type="curve" smooth="yes"/>
      <point x="233.8" y="816"/>
      <point x="296.2" y="870.6"/>
      <point x="296.2" y="939" type="curve" smooth="yes"/>
      <point x="296.2" y="1012.2"/>
      <point x="238.6" y="1065.6"/>
      <point x="172" y="1065.6" type="curve" smooth="yes"/>
      <point x="100" y="1065.6"/>
      <point x="40" y="1008"/>
      <point x="40" y="928.8" type="curve" smooth="yes"/>
      <point x="40" y="817.8"/>
      <point x="146.8" y="696"/>
    </contour>
    <contour>
      <point x="966" y="-206" type="line"/>
      <point x="1428" y="-206" type="line"/>
      <point x="1428" y="-203.6" type="line"/>
      <point x="1338" y="-203.6" type="line"/>
      <point x="1338" y="694" type="line"/>
      <point x="1158" y="694" type="line"/>
      <point x="702" y="50.8" type="line"/>
      <point x="1470" y="50.8" type="line"/>
      <point x="1470" y="53.2" type="line"/>
      <point x="706.8" y="53.2" type="line"/>
      <point x="1080" y="578.8" type="line"/>
      <point x="1080" y="-203.6" type="line"/>
      <point x="966" y="-203.6" type="line"/>
    </contour>
    <contour>
      <point x="265.6" y="1193.4" type="line"/>
      <point x="542.8" y="1193.4"/>
      <point x="671.2" y="1297.2"/>
      <point x="671.2" y="1417.2" type="curve" smooth="yes"/>
      <point x="671.2" y="1549.8"/>
      <point x="493" y="1618.8"/>
      <point x="359.2" y="1618.8" type="curve" smooth="yes"/>
      <point x="236.8" y="1618.8"/>
      <point x="75.4" y="1536"/>
      <point x="75.4" y="1425" type="curve" smooth="yes"/>
      <point x="75.4" y="1345.8"/>
      <point x="138.4" y="1290.6"/>
      <point x="205" y="1290.6" type="curve" smooth="yes"/>
      <point x="265" y="1290.6"/>
      <point x="332.8" y="1339.2"/>
      <point x="332.8" y="1417.2" type="curve" smooth="yes"/>
      <point x="332.8" y="1489.2"/>
      <point x="270.4" y="1540.8"/>
      <point x="205" y="1540.8" type="curve" smooth="yes"/>
      <point x="144.4" y="1540.8"/>
      <point x="76.6" y="1491"/>
      <point x="76.6" y="1425" type="curve"/>
      <point x="77.8" y="1425" type="line"/>
      <point x="77.8" y="1542"/>
      <point x="249.4" y="1610.4"/>
      <point x="317.2" y="1610.4" type="curve" smooth="yes"/>
      <point x="394" y="1610.4"/>
      <point x="406" y="1485"/>
      <point x="406" y="1396.2" type="curve" smooth="yes"/>
      <point x="406" y="1319.4"/>
      <point x="396.4" y="1195.2"/>
      <point x="265.6" y="1195.2" type="curve"/>
    </contour>
  </outline>
</glyph>
<glyph name="questiondown" format="2">
  <advance width="1238"/>
  <unicode hex="00BF"/>
  <outline>
    <contour>
      <point x="628" y="-480" type="curve" smooth="yes"/>
      <point x="953" y="-480"/>
      <point x="1120" y="-256"/>
      <point x="1120" y="-92" type="curve" smooth="yes"/>
      <point x="1120" y="40"/>
      <point x="1017" y="131"/>
      <point x="906" y="131" type="curve" smooth="yes"/>
      <point x="806" y="131"/>
      <point x="692" y="50"/>
      <point x="692" y="-80" type="curve" smooth="yes"/>
      <point x="692" y="-200"/>
      <point x="797" y="-289"/>
      <point x="906" y="-289" type="curve" smooth="yes"/>
      <point x="1013" y="-289"/>
      <point x="1118" y="-202"/>
      <point x="1118" y="-92" type="curve"/>
      <point x="1116" y="-92" type="line"/>
      <point x="1116" y="-298"/>
      <point x="896" y="-463"/>
      <point x="718" y="-463" type="curve" smooth="yes"/>
      <point x="540" y="-463"/>
      <point x="542" y="-268"/>
      <point x="542" y="-80" type="curve" smooth="yes"/>
      <point x="542" y="106"/>
      <point x="574" y="246"/>
      <point x="728" y="308" type="curve"/>
      <point x="728" y="482" type="line"/>
      <point x="724" y="482" type="line"/>
      <point x="724" y="310" type="line"/>
      <point x="362" y="292"/>
      <point x="100" y="150"/>
      <point x="100" y="-80" type="curve" smooth="yes"/>
      <point x="100" y="-320"/>
      <point x="296" y="-480"/>
    </contour>
    <contour>
      <point x="662" y="580" type="curve" smooth="yes"/>
      <point x="794" y="580"/>
      <point x="902" y="688"/>
      <point x="902" y="820" type="curve" smooth="yes"/>
      <point x="902" y="952"/>
      <point x="794" y="1060"/>
      <point x="662" y="1060" type="curve" smooth="yes"/>
      <point x="530" y="1060"/>
      <point x="422" y="952"/>
      <point x="422" y="820" type="curve" smooth="yes"/>
      <point x="422" y="688"/>
      <point x="530" y="580"/>
    </contour>
  </outline>
</glyph>
<glyph name="AE" format="2">
  <advance width="2179"/>
  <unicode hex="00C6"/>
  <outline>
    <contour>
      <point x="210" y="0" type="line"/>
      <point x="216" y="0" type="line"/>
      <point x="1056" y="1500" type="line"/>
      <point x="1050" y="1500" type="line"/>
    </contour>
    <contour>
      <point x="30" y="0" type="line"/>
      <point x="470" y="0" type="line"/>
      <point x="470" y="4" type="line"/>
      <point x="30" y="4" type="line"/>
    </contour>
    <contour>
      <point x="490" y="488" type="line"/>
      <point x="1070" y="488" type="line"/>
      <point x="1070" y="492" type="line"/>
      <point x="490" y="492" type="line"/>
    </contour>
    <contour>
      <point x="870" y="0" type="line"/>
      <point x="2120" y="0" type="line"/>
      <point x="2120" y="450" type="line"/>
      <point x="2116" y="450" type="line"/>
      <point x="2056" y="196"/>
      <point x="1854" y="4"/>
      <point x="1600" y="4" type="curve" smooth="yes"/>
      <point x="870" y="4" type="line"/>
    </contour>
    <contour>
      <point x="1050" y="0" type="line"/>
      <point x="1480" y="0" type="line"/>
      <point x="1480" y="1500" type="line"/>
      <point x="1050" y="1500" type="line"/>
    </contour>
    <contour>
      <point x="1816" y="496" type="curve"/>
      <point x="1820" y="496" type="line"/>
      <point x="1820" y="1046" type="line"/>
      <point x="1816" y="1046" type="line"/>
      <point x="1756" y="912"/>
      <point x="1614" y="778"/>
      <point x="1500" y="778" type="curve" smooth="yes"/>
      <point x="1380" y="778" type="line"/>
      <point x="1380" y="774" type="line"/>
      <point x="1500" y="774" type="line" smooth="yes"/>
      <point x="1614" y="774"/>
      <point x="1756" y="630"/>
    </contour>
    <contour>
      <point x="2096" y="1090" type="curve"/>
      <point x="2100" y="1090" type="line"/>
      <point x="2100" y="1500" type="line"/>
      <point x="1050" y="1500" type="line"/>
      <point x="1050" y="1496" type="line"/>
      <point x="1620" y="1496" type="line" smooth="yes"/>
      <point x="1834" y="1496"/>
      <point x="2036" y="1304"/>
    </contour>
  </outline>
</glyph>
<glyph name="Eth" format="2">
  <advance width="1629"/>
  <unicode hex="00D0"/>
  <anchor x="726" y="0" name="bottom"/>
  <anchor x="726" y="0" name="cedilla"/>
  <anchor x="744" y="1500" name="top"/>
  <outline>
    <contour>
      <point x="49" y="748" type="line"/>
      <point x="850" y="748" type="line"/>
      <point x="850" y="752" type="line"/>
      <point x="49" y="752" type="line"/>
    </contour>
    <component base="D"/>
  </outline>
</glyph>
<glyph name="Oslash" format="2">
  <advance width="1599"/>
  <unicode hex="00D8"/>
  <outline>
    <contour>
      <point x="352" y="-200" type="line"/>
      <point x="356" y="-200" type="line"/>
      <point x="1232" y="1660" type="line"/>
      <point x="1228" y="1660" type="line"/>
    </contour>
    <component base="O"/>
  </outline>
</glyph>
<glyph name="eth" format="2">
  <advance width="1319"/>
  <unicode hex="00F0"/>
  <outline>
    <contour>
      <point x="632" y="-20" type="curve" smooth="yes"/>
      <point x="974" y="-20"/>
      <point x="1220" y="200"/>
      <point x="1220" y="620" type="curve" smooth="yes"/>
      <point x="1220" y="1142"/>
      <point x="794" y="1520"/>
      <point x="210" y="1520" type="curve"/>
      <point x="210" y="1516" type="line"/>
      <point x="578" y="1516"/>
      <point x="762" y="1004"/>
      <point x="762" y="660" type="curve"/>
      <point x="760" y="560" type="line"/>
      <point x="760" y="192"/>
      <point x="724" y="-16"/>
      <point x="626" y="-16" type="curve" smooth="yes"/>
      <point x="528" y="-16"/>
      <point x="520" y="172"/>
      <point x="520" y="500" type="curve" smooth="yes"/>
      <point x="520" y="868"/>
      <point x="544" y="962"/>
      <point x="622" y="962" type="curve" smooth="yes"/>
      <point x="688" y="962"/>
      <point x="760" y="860"/>
      <point x="760" y="560" type="curve"/>
      <point x="764" y="560" type="line"/>
      <point x="764" y="814"/>
      <point x="720" y="990"/>
      <point x="558" y="990" type="curve" smooth="yes"/>
      <point x="316" y="990"/>
      <point x="60" y="840"/>
      <point x="60" y="500" type="curve" smooth="yes"/>
      <point x="60" y="200"/>
      <point x="290" y="-20"/>
    </contour>
    <contour>
      <point x="300" y="1256" type="line"/>
      <point x="1240" y="1256" type="line"/>
      <point x="1240" y="1260" type="line"/>
      <point x="300" y="1260" type="line"/>
    </contour>
  </outline>
</glyph>
<glyph name="oslash" format="2">
  <advance width="1135"/>
  <unicode hex="00F8"/>
  <outline>
    <contour>
      <point x="120" y="-246.452" type="line"/>
      <point x="124" y="-246.452" type="line"/>
      <point x="1000" y="1157.55" type="line"/>
      <point x="996" y="1157.55" type="line"/>
    </contour>
    <component base="o"/>
  </outline>
</glyph>
<glyph name="thorn" format="2">
  <advance width="1345"/>
  <unicode hex="00FE"/>
  <outline>
    <contour>
      <point x="30" y="-500" type="line"/>
      <point x="690" y="-500" type="line"/>
      <point x="690" y="-496" type="line"/>
      <point x="550" y="-496" type="line"/>
      <point x="550" y="364" type="line"/>
      <point x="571" y="119"/>
      <point x="679" y="-20"/>
      <point x="862" y="-20" type="curve" smooth="yes"/>
      <point x="1080" y="-20"/>
      <point x="1286" y="160"/>
      <point x="1286" y="460" type="curve" smooth="yes"/>
      <point x="1286" y="760"/>
      <point x="1080" y="938"/>
      <point x="862" y="938" type="curve" smooth="yes"/>
      <point x="677" y="938"/>
      <point x="571" y="801"/>
      <point x="550" y="557" type="curve"/>
      <point x="550" y="1500" type="line"/>
      <point x="30" y="1500" type="line"/>
      <point x="30" y="1496" type="line"/>
      <point x="170" y="1496" type="line"/>
      <point x="170" y="-496" type="line"/>
      <point x="30" y="-496" type="line"/>
    </contour>
    <contour>
      <point x="772" y="12" type="curve" smooth="yes"/>
      <point x="672" y="12"/>
      <point x="550" y="152"/>
      <point x="550" y="460" type="curve" smooth="yes"/>
      <point x="550" y="768"/>
      <point x="672" y="906"/>
      <point x="772" y="906" type="curve" smooth="yes"/>
      <point x="840" y="906"/>
      <point x="856" y="768"/>
      <point x="856" y="460" type="curve" smooth="yes"/>
      <point x="856" y="152"/>
      <point x="840" y="12"/>
    </contour>
  </outline>
</glyph>
<glyph name="dcroat" format="2">
  <advance width="1325"/>
  <unicode hex="0111"/>
  <outline>
    <contour>
      <point x="480" y="1138" type="line"/>
      <point x="1303.886" y="1138" type="line"/>
      <point x="1303.886" y="1142" type="line"/>
      <point x="480" y="1142" type="line"/>
    </contour>
    <component base="d"/>
  </outline>
</glyph>
<glyph name="Hbar" format="2">
  <advance width="1699"/>
  <unicode hex="0126"/>
  <outline>
    <contour>
      <point x="28" y="1142" type="line"/>
      <point x="1669.999" y="1142" type="line"/>
      <point x="1669.999" y="1146" type="line"/>
      <point x="28" y="1146" type="line"/>
    </contour>
    <component base="H"/>
  </outline>
</glyph>
<glyph name="OE" format="2">
  <advance width="2068"/>
  <unicode hex="0152"/>
  <outline>
    <contour>
      <point x="820" y="1496" type="move"/>
    </contour>
    <contour>
      <point x="550" y="750" type="curve" smooth="yes"/>
      <point x="550" y="326"/>
      <point x="632" y="4"/>
      <point x="820" y="4" type="curve"/>
      <point x="760" y="0" type="line"/>
      <point x="354" y="0"/>
      <point x="80" y="306"/>
      <point x="80" y="750" type="curve" smooth="yes"/>
      <point x="80" y="1194"/>
      <point x="354" y="1500"/>
      <point x="760" y="1500" type="curve"/>
      <point x="820" y="1496" type="line"/>
      <point x="632" y="1496"/>
      <point x="550" y="1174"/>
    </contour>
    <component base="E" xOffset="730"/>
  </outline>
</glyph>
<glyph name="tbar" format="2">
  <advance width="799"/>
  <unicode hex="0167"/>
  <outline>
    <contour>
      <point x="0.5" y="552" type="line"/>
      <point x="738.5" y="552" type="line"/>
      <point x="738.5" y="556" type="line"/>
      <point x="0.5" y="556" type="line"/>
    </contour>
    <component base="t"/>
  </outline>
</glyph>
<glyph name="gravecomb" format="2">
  <unicode hex="0300"/>
  <anchor x="614" y="1500" name="_top"/>
  <outline>
    <contour>
      <point x="734" y="1680" type="line"/>
      <point x="736" y="1683" type="line"/>
      <point x="597" y="1956" type="line" smooth="yes"/>
      <point x="521" y="2104"/>
      <point x="346" y="2079"/>
      <point x="292" y="2001" type="curve" smooth="yes"/>
      <point x="226" y="1905"/>
      <point x="282" y="1739"/>
      <point x="442" y="1718" type="curve" smooth="yes"/>
    </contour>
  </outline>
</glyph>
<glyph name="tildecomb" format="2">
  <unicode hex="0303"/>
  <anchor x="506" y="1500" name="_top"/>
  <outline>
    <contour>
      <point x="670" y="1640" type="curve" smooth="yes"/>
      <point x="848" y="1640"/>
      <point x="848" y="1784"/>
      <point x="848" y="1974" type="curve"/>
      <point x="844" y="1974" type="line"/>
      <point x="844" y="1930"/>
      <point x="808" y="1876"/>
      <point x="722" y="1876" type="curve" smooth="yes"/>
      <point x="570" y="1876"/>
      <point x="530" y="2034"/>
      <point x="350" y="2034" type="curve" smooth="yes"/>
      <point x="192" y="2034"/>
      <point x="152" y="1870"/>
      <point x="152" y="1700" type="curve"/>
      <point x="156" y="1700" type="line"/>
      <point x="156" y="1744"/>
      <point x="192" y="1798"/>
      <point x="278" y="1798" type="curve" smooth="yes"/>
      <point x="444" y="1798"/>
      <point x="496" y="1640"/>
    </contour>
  </outline>
</glyph>
<glyph name="brevecomb" format="2">
  <unicode hex="0306"/>
  <anchor x="500" y="1500" name="_top"/>
  <outline>
    <contour>
      <point x="500" y="1680" type="curve" smooth="yes"/>
      <point x="660" y="1680"/>
      <point x="760" y="1796"/>
      <point x="760" y="2058" type="curve"/>
      <point x="756" y="2058" type="line"/>
      <point x="756" y="1970"/>
      <point x="608" y="1950"/>
      <point x="500" y="1950" type="curve" smooth="yes"/>
      <point x="392" y="1950"/>
      <point x="244" y="1970"/>
      <point x="244" y="2058" type="curve"/>
      <point x="240" y="2058" type="line"/>
      <point x="240" y="1796"/>
      <point x="340" y="1680"/>
    </contour>
  </outline>
</glyph>
<glyph name="breveinvertedcomb" format="2">
  <unicode hex="0311"/>
  <anchor x="497" y="1500" name="_top"/>
  <outline>
    <contour>
      <point x="240" y="1681" type="curve"/>
      <point x="244" y="1681" type="line"/>
      <point x="244" y="1769"/>
      <point x="392" y="1789"/>
      <point x="500" y="1789" type="curve" smooth="yes"/>
      <point x="608" y="1789"/>
      <point x="756" y="1769"/>
      <point x="756" y="1681" type="curve"/>
      <point x="760" y="1681" type="line"/>
      <point x="760" y="1943"/>
      <point x="660" y="2059"/>
      <point x="500" y="2059" type="curve" smooth="yes"/>
      <point x="340" y="2059"/>
      <point x="240" y="1943"/>
    </contour>
  </outline>
</glyph>
<glyph name="Delta" format="2">
  <advance width="1356"/>
  <unicode hex="0394"/>
  <outline>
    <contour>
      <point x="60" y="0" type="line"/>
      <point x="64" y="0" type="line"/>
      <point x="449" y="1081" type="line"/>
      <point x="800" y="0" type="line"/>
      <point x="1296" y="0" type="line"/>
      <point x="766" y="1529" type="line"/>
      <point x="602" y="1529" type="line"/>
    </contour>
    <contour>
      <point x="62" y="0" type="line"/>
      <point x="1080" y="0" type="line"/>
      <point x="1080" y="4" type="line"/>
      <point x="62" y="4" type="line"/>
    </contour>
  </outline>
</glyph>
<glyph name="Omega" format="2">
  <advance width="1552"/>
  <unicode hex="03A9"/>
  <outline>
    <contour>
      <point x="626" y="430" type="curve"/>
      <point x="626" y="433" type="line"/>
      <point x="508" y="493"/>
      <point x="466" y="687"/>
      <point x="466" y="950" type="curve" smooth="yes"/>
      <point x="466" y="1263"/>
      <point x="518" y="1516"/>
      <point x="776" y="1516" type="curve" smooth="yes"/>
      <point x="1034" y="1516"/>
      <point x="1087" y="1263"/>
      <point x="1087" y="950" type="curve" smooth="yes"/>
      <point x="1087" y="687"/>
      <point x="1045" y="502"/>
      <point x="927" y="442" type="curve"/>
      <point x="927" y="439" type="line"/>
      <point x="1203" y="489"/>
      <point x="1466" y="624"/>
      <point x="1466" y="950" type="curve" smooth="yes"/>
      <point x="1466" y="1326"/>
      <point x="1213" y="1520"/>
      <point x="776" y="1520" type="curve" smooth="yes"/>
      <point x="339" y="1520"/>
      <point x="87" y="1326"/>
      <point x="87" y="950" type="curve" smooth="yes"/>
      <point x="87" y="624"/>
      <point x="350" y="480"/>
    </contour>
    <contour>
      <point x="137" y="0" type="line"/>
      <point x="626" y="0" type="line"/>
      <point x="626" y="431" type="line"/>
      <point x="622" y="432" type="line"/>
      <point x="622" y="363" type="line"/>
      <point x="331" y="363" type="line" smooth="yes"/>
      <point x="228.141" y="363"/>
      <point x="141" y="406"/>
      <point x="141" y="500" type="curve"/>
      <point x="137" y="500" type="line"/>
    </contour>
    <contour>
      <point x="927" y="0" type="line"/>
      <point x="1416" y="0" type="line"/>
      <point x="1416" y="500" type="line"/>
      <point x="1412" y="500" type="line"/>
      <point x="1412" y="406"/>
      <point x="1324.96" y="363"/>
      <point x="1222" y="363" type="curve" smooth="yes"/>
      <point x="931" y="363" type="line"/>
      <point x="931" y="443" type="line"/>
      <point x="927" y="439" type="line"/>
    </contour>
  </outline>
</glyph>
<glyph name="Germandbls" format="2">
  <advance width="1960"/>
  <unicode hex="1E9E"/>
  <outline>
    <contour>
      <point x="210" y="0" type="line"/>
      <point x="650" y="0" type="line"/>
      <point x="650" y="860" type="line" smooth="yes"/>
      <point x="650" y="1264"/>
      <point x="758" y="1516"/>
      <point x="1186" y="1516" type="curve" smooth="yes"/>
      <point x="1314" y="1516"/>
      <point x="1427" y="1492"/>
      <point x="1483" y="1472" type="curve"/>
      <point x="986" y="820" type="line"/>
      <point x="1164" y="811"/>
      <point x="1306" y="764"/>
      <point x="1388" y="732" type="curve"/>
      <point x="1822" y="1302" type="line"/>
      <point x="1742" y="1388"/>
      <point x="1494" y="1520"/>
      <point x="1186" y="1520" type="curve" smooth="yes"/>
      <point x="640" y="1520"/>
      <point x="210" y="1326"/>
      <point x="210" y="882" type="curve" smooth="yes"/>
    </contour>
    <contour>
      <point x="28" y="0" type="line"/>
      <point x="830" y="0" type="line"/>
      <point x="830" y="4" type="line"/>
      <point x="28" y="4" type="line"/>
    </contour>
    <contour>
      <point x="1281" y="-20" type="curve" smooth="yes"/>
      <point x="1563" y="-20"/>
      <point x="1881" y="130"/>
      <point x="1881" y="430" type="curve" smooth="yes"/>
      <point x="1881" y="691"/>
      <point x="1618" y="820"/>
      <point x="986" y="820" type="curve"/>
      <point x="986" y="816" type="line"/>
      <point x="1294" y="816"/>
      <point x="1441" y="628"/>
      <point x="1441" y="420" type="curve" smooth="yes"/>
      <point x="1441" y="192"/>
      <point x="1380" y="-5"/>
      <point x="1202" y="-5" type="curve" smooth="yes"/>
      <point x="1004" y="-5"/>
      <point x="773" y="151"/>
      <point x="773" y="371" type="curve"/>
      <point x="771" y="371" type="line"/>
      <point x="771" y="281"/>
      <point x="884" y="180"/>
      <point x="995" y="180" type="curve" smooth="yes"/>
      <point x="1104" y="180"/>
      <point x="1208" y="276"/>
      <point x="1208" y="390" type="curve" smooth="yes"/>
      <point x="1208" y="512"/>
      <point x="1116" y="612"/>
      <point x="995" y="612" type="curve" smooth="yes"/>
      <point x="865" y="612"/>
      <point x="769" y="503"/>
      <point x="769" y="371" type="curve" smooth="yes"/>
      <point x="769" y="186"/>
      <point x="947" y="-20"/>
    </contour>
  </outline>
</glyph>
<glyph name="endash" format="2">
  <advance width="1081"/>
  <unicode hex="2013"/>
  <outline>
    <contour>
      <point x="119.336" y="548" type="line"/>
      <point x="960.68" y="548" type="line"/>
      <point x="960.68" y="552" type="line"/>
      <point x="119.336" y="552" type="line"/>
    </contour>
  </outline>
</glyph>
<glyph name="emdash" format="2">
  <advance width="1569"/>
  <unicode hex="2014"/>
  <outline>
    <contour>
      <point x="119.411" y="548" type="line"/>
      <point x="1449.054" y="548" type="line"/>
      <point x="1449.054" y="552" type="line"/>
      <point x="119.411" y="552" type="line"/>
    </contour>
  </outline>
</glyph>
<glyph name="quotedblright" format="2">
  <advance width="1278"/>
  <unicode hex="201D"/>
  <outline>
    <contour>
      <point x="686" y="772" type="line"/>
      <point x="996" y="772"/>
      <point x="1204" y="951"/>
      <point x="1204" y="1232" type="curve" smooth="yes"/>
      <point x="1204" y="1418"/>
      <point x="1082" y="1540"/>
      <point x="944" y="1540" type="curve" smooth="yes"/>
      <point x="808" y="1540"/>
      <point x="690" y="1428"/>
      <point x="690" y="1302" type="curve" smooth="yes"/>
      <point x="690" y="1176"/>
      <point x="780" y="1064"/>
      <point x="926" y="1064" type="curve" smooth="yes"/>
      <point x="1054" y="1064"/>
      <point x="1189" y="1178"/>
      <point x="1189" y="1328" type="curve"/>
      <point x="1187" y="1328" type="line"/>
      <point x="1249" y="974"/>
      <point x="1000" y="776"/>
      <point x="686" y="776" type="curve"/>
    </contour>
    <contour>
      <point x="76" y="772" type="line"/>
      <point x="386" y="772"/>
      <point x="594" y="951"/>
      <point x="594" y="1232" type="curve" smooth="yes"/>
      <point x="594" y="1418"/>
      <point x="472" y="1540"/>
      <point x="334" y="1540" type="curve" smooth="yes"/>
      <point x="198" y="1540"/>
      <point x="80" y="1428"/>
      <point x="80" y="1302" type="curve" smooth="yes"/>
      <point x="80" y="1176"/>
      <point x="170" y="1064"/>
      <point x="316" y="1064" type="curve" smooth="yes"/>
      <point x="444" y="1064"/>
      <point x="579" y="1178"/>
      <point x="579" y="1328" type="curve"/>
      <point x="577" y="1328" type="line"/>
      <point x="639" y="974"/>
      <point x="390" y="776"/>
      <point x="76" y="776" type="curve"/>
    </contour>
  </outline>
</glyph>
<glyph name="daggerdbl" format="2">
  <advance width="1288"/>
  <unicode hex="2021"/>
  <outline>
    <contour>
      <point x="644" y="-520" type="curve" smooth="yes"/>
      <point x="762" y="-520"/>
      <point x="864" y="-436"/>
      <point x="864" y="-318" type="curve" smooth="yes"/>
      <point x="864" y="-306"/>
      <point x="864" y="-296"/>
      <point x="862" y="-282" type="curve" smooth="yes"/>
      <point x="847" y="-160"/>
      <point x="646" y="-119"/>
      <point x="646" y="29" type="curve"/>
      <point x="784" y="27"/>
      <point x="831" y="-172"/>
      <point x="950" y="-187" type="curve" smooth="yes"/>
      <point x="964" y="-189"/>
      <point x="974" y="-189"/>
      <point x="986" y="-189" type="curve" smooth="yes"/>
      <point x="1104" y="-189"/>
      <point x="1188" y="-87"/>
      <point x="1188" y="31" type="curve" smooth="yes"/>
      <point x="1188" y="149"/>
      <point x="1104" y="251"/>
      <point x="986" y="251" type="curve" smooth="yes"/>
      <point x="974" y="251"/>
      <point x="964" y="251"/>
      <point x="950" y="249" type="curve" smooth="yes"/>
      <point x="831" y="234"/>
      <point x="784" y="35"/>
      <point x="646" y="33" type="curve"/>
      <point x="649" y="296"/>
      <point x="781" y="401"/>
      <point x="850" y="500" type="curve"/>
      <point x="781" y="599"/>
      <point x="649" y="704"/>
      <point x="646" y="967" type="curve"/>
      <point x="784" y="965"/>
      <point x="831" y="766"/>
      <point x="950" y="751" type="curve" smooth="yes"/>
      <point x="964" y="749"/>
      <point x="974" y="749"/>
      <point x="986" y="749" type="curve" smooth="yes"/>
      <point x="1104" y="749"/>
      <point x="1188" y="851"/>
      <point x="1188" y="969" type="curve" smooth="yes"/>
      <point x="1188" y="1087"/>
      <point x="1104" y="1189"/>
      <point x="986" y="1189" type="curve" smooth="yes"/>
      <point x="974" y="1189"/>
      <point x="964" y="1189"/>
      <point x="950" y="1187" type="curve" smooth="yes"/>
      <point x="831" y="1172"/>
      <point x="784" y="973"/>
      <point x="646" y="971" type="curve"/>
      <point x="646" y="1120"/>
      <point x="847" y="1160"/>
      <point x="862" y="1282" type="curve" smooth="yes"/>
      <point x="864" y="1296"/>
      <point x="864" y="1306"/>
      <point x="864" y="1318" type="curve" smooth="yes"/>
      <point x="864" y="1436"/>
      <point x="762" y="1520"/>
      <point x="644" y="1520" type="curve" smooth="yes"/>
      <point x="526" y="1520"/>
      <point x="424" y="1436"/>
      <point x="424" y="1318" type="curve" smooth="yes"/>
      <point x="424" y="1306"/>
      <point x="424" y="1296"/>
      <point x="426" y="1282" type="curve" smooth="yes"/>
      <point x="441" y="1160"/>
      <point x="642" y="1119"/>
      <point x="642" y="971" type="curve"/>
      <point x="504" y="973"/>
      <point x="457" y="1172"/>
      <point x="338" y="1187" type="curve" smooth="yes"/>
      <point x="324" y="1189"/>
      <point x="314" y="1189"/>
      <point x="302" y="1189" type="curve" smooth="yes"/>
      <point x="184" y="1189"/>
      <point x="100" y="1087"/>
      <point x="100" y="969" type="curve" smooth="yes"/>
      <point x="100" y="851"/>
      <point x="184" y="749"/>
      <point x="302" y="749" type="curve" smooth="yes"/>
      <point x="314" y="749"/>
      <point x="324" y="749"/>
      <point x="338" y="751" type="curve" smooth="yes"/>
      <point x="457" y="766"/>
      <point x="504" y="965"/>
      <point x="642" y="967" type="curve"/>
      <point x="639" y="704"/>
      <point x="507" y="599"/>
      <point x="438" y="500" type="curve"/>
      <point x="507" y="401"/>
      <point x="639" y="296"/>
      <point x="642" y="33" type="curve"/>
      <point x="504" y="35"/>
      <point x="457" y="234"/>
      <point x="338" y="249" type="curve" smooth="yes"/>
      <point x="324" y="251"/>
      <point x="314" y="251"/>
      <point x="302" y="251" type="curve" smooth="yes"/>
      <point x="184" y="251"/>
      <point x="100" y="149"/>
      <point x="100" y="31" type="curve" smooth="yes"/>
      <point x="100" y="-87"/>
      <point x="184" y="-189"/>
      <point x="302" y="-189" type="curve" smooth="yes"/>
      <point x="314" y="-189"/>
      <point x="324" y="-189"/>
      <point x="338" y="-187" type="curve" smooth="yes"/>
      <point x="457" y="-172"/>
      <point x="504" y="27"/>
      <point x="642" y="29" type="curve"/>
      <point x="642" y="-120"/>
      <point x="441" y="-160"/>
      <point x="426" y="-282" type="curve" smooth="yes"/>
      <point x="424" y="-296"/>
      <point x="424" y="-306"/>
      <point x="424" y="-318" type="curve" smooth="yes"/>
      <point x="424" y="-436"/>
      <point x="526" y="-520"/>
    </contour>
  </outline>
</glyph>
<glyph name="trademark" format="2">
  <advance width="1360"/>
  <unicode hex="2122"/>
  <anchor x="317" y="976" name="bottom"/>
  <anchor x="320.24" y="1516" name="top"/>
  <outline>
    <contour>
      <point x="869" y="969" type="line"/>
      <point x="872" y="969" type="line"/>
      <point x="1063" y="1513" type="line"/>
      <point x="1063" y="977" type="line"/>
      <point x="1005" y="977" type="line"/>
      <point x="1005" y="976" type="line"/>
      <point x="1268" y="976" type="line"/>
      <point x="1268" y="977" type="line"/>
      <point x="1218" y="977" type="line"/>
      <point x="1218" y="1515" type="line"/>
      <point x="1268" y="1515" type="line"/>
      <point x="1268" y="1516" type="line"/>
      <point x="1062" y="1516" type="line"/>
      <point x="948" y="1190" type="line"/>
      <point x="824" y="1516" type="line"/>
      <point x="613" y="1516" type="line"/>
      <point x="613" y="1515" type="line"/>
      <point x="668" y="1515" type="line"/>
      <point x="668" y="977" type="line"/>
      <point x="616" y="977" type="line"/>
      <point x="616" y="976" type="line"/>
      <point x="726" y="976" type="line"/>
      <point x="726" y="977" type="line"/>
      <point x="670" y="977" type="line"/>
      <point x="670" y="1513" type="line"/>
    </contour>
    <contour>
      <point x="160" y="976" type="line"/>
      <point x="474" y="976" type="line"/>
      <point x="474" y="977" type="line"/>
      <point x="394" y="977" type="line"/>
      <point x="394" y="1515" type="line"/>
      <point x="416" y="1515" type="line" smooth="yes"/>
      <point x="486" y="1515"/>
      <point x="544" y="1424"/>
      <point x="566" y="1332" type="curve"/>
      <point x="567" y="1332" type="line"/>
      <point x="567" y="1516" type="line"/>
      <point x="67" y="1516" type="line"/>
      <point x="67" y="1332" type="line"/>
      <point x="68" y="1332" type="line"/>
      <point x="90" y="1424"/>
      <point x="148" y="1515"/>
      <point x="218" y="1515" type="curve" smooth="yes"/>
      <point x="240" y="1515" type="line"/>
      <point x="240" y="977" type="line"/>
      <point x="160" y="977" type="line"/>
    </contour>
  </outline>
</glyph>
<glyph name="radical" format="2">
  <advance width="1190"/>
  <unicode hex="221A"/>
  <outline>
    <contour>
      <point x="539" y="-20" type="line"/>
      <point x="605" y="-20" type="line"/>
      <point x="972" y="1496" type="line"/>
      <point x="1190" y="1496" type="line"/>
      <point x="1190" y="1500" type="line"/>
      <point x="969" y="1500" type="line"/>
      <point x="691" y="358" type="line"/>
      <point x="507" y="676" type="line"/>
      <point x="111" y="450" type="line"/>
      <point x="112" y="447" type="line"/>
      <point x="222" y="510" type="line"/>
    </contour>
  </outline>
</glyph>
<glyph name="notequal" format="2">
  <advance width="1119"/>
  <unicode hex="2260"/>
  <outline>
    <contour>
      <point x="240.977" y="304.663" type="line"/>
      <point x="883.109" y="1221.722" type="line"/>
      <point x="879.832" y="1224.017" type="line"/>
      <point x="237.701" y="306.957" type="line"/>
    </contour>
    <contour>
      <point x="120" y="618" type="line"/>
      <point x="1000" y="618" type="line"/>
      <point x="1000" y="622" type="line"/>
      <point x="120" y="622" type="line"/>
    </contour>
    <contour>
      <point x="120" y="919" type="line"/>
      <point x="1000" y="919" type="line"/>
      <point x="1000" y="923" type="line"/>
      <point x="120" y="923" type="line"/>
    </contour>
  </outline>
</glyph>
<glyph name="uniF8E8" format="2">
  <advance width="1118"/>
  <unicode hex="F8E8"/>
  <anchor x="582.96" y="857.6" name="bottom"/>
  <anchor x="434.64" y="857.6" name="cedilla"/>
  <anchor x="531.84" y="1397.6" name="top"/>
  <outline>
    <contour>
      <point x="558" y="668" type="curve" smooth="yes"/>
      <point x="813.6" y="668"/>
      <point x="1020" y="874.4"/>
      <point x="1020" y="1130" type="curve" smooth="yes"/>
      <point x="1020" y="1385.6"/>
      <point x="813.6" y="1592"/>
      <point x="558" y="1592" type="curve" smooth="yes"/>
      <point x="302.4" y="1592"/>
      <point x="96" y="1385.6"/>
      <point x="96" y="1130" type="curve" smooth="yes"/>
      <point x="96" y="874.4"/>
      <point x="302.4" y="668"/>
    </contour>
    <contour>
      <point x="296.4" y="857.6" type="line"/>
      <point x="580.8" y="857.6" type="line"/>
      <point x="580.8" y="858.8" type="line"/>
      <point x="296.4" y="858.8" type="line"/>
    </contour>
    <contour>
      <point x="361.2" y="857.6" type="line"/>
      <point x="516" y="857.6" type="line"/>
      <point x="516" y="1397.6" type="line"/>
      <point x="361.2" y="1397.6" type="line"/>
    </contour>
    <contour>
      <point x="739.2" y="850.4" type="curve" smooth="yes"/>
      <point x="793.8" y="850.4"/>
      <point x="835.8" y="861.8"/>
      <point x="847.2" y="868.4" type="curve"/>
      <point x="846.6" y="869" type="line"/>
      <point x="836.4" y="864.2"/>
      <point x="819" y="858.8"/>
      <point x="804" y="858.8" type="curve" smooth="yes"/>
      <point x="715.2" y="858.8"/>
      <point x="856.8" y="1135.4"/>
      <point x="631.2" y="1135.4" type="curve" smooth="yes"/>
      <point x="426" y="1135.4" type="line"/>
      <point x="426" y="1134.2" type="line"/>
      <point x="530.4" y="1134.2" type="line" smooth="yes"/>
      <point x="707.4" y="1134.2"/>
      <point x="513.6" y="850.4"/>
    </contour>
    <contour>
      <point x="558" y="670.4" type="curve" smooth="yes"/>
      <point x="304.8" y="670.4"/>
      <point x="98.4" y="876.8"/>
      <point x="98.4" y="1130" type="curve" smooth="yes"/>
      <point x="98.4" y="1383.2"/>
      <point x="304.8" y="1589.6"/>
      <point x="558" y="1589.6" type="curve" smooth="yes"/>
      <point x="811.2" y="1589.6"/>
      <point x="1017.6" y="1383.2"/>
      <point x="1017.6" y="1130" type="curve" smooth="yes"/>
      <point x="1017.6" y="876.8"/>
      <point x="811.2" y="670.4"/>
    </contour>
    <contour>
      <point x="426" y="1134.2" type="line"/>
      <point x="562.8" y="1134.2" type="line" smooth="yes"/>
      <point x="700.2" y="1134.2"/>
      <point x="786" y="1170.8"/>
      <point x="786" y="1264.4" type="curve" smooth="yes"/>
      <point x="786" y="1358"/>
      <point x="693" y="1397.6"/>
      <point x="562.8" y="1397.6" type="curve" smooth="yes"/>
      <point x="296.4" y="1397.6" type="line"/>
      <point x="296.4" y="1396.4" type="line"/>
      <point x="526.8" y="1396.4" type="line" smooth="yes"/>
      <point x="595.8" y="1396.4"/>
      <point x="627.6" y="1357.4"/>
      <point x="627.6" y="1264.4" type="curve" smooth="yes"/>
      <point x="627.6" y="1171.4"/>
      <point x="595.8" y="1135.4"/>
      <point x="526.8" y="1135.4" type="curve" smooth="yes"/>
      <point x="426" y="1135.4" type="line"/>
    </contour>
  </outline>
</glyph>
<glyph name="uniF8E9" format="2">
  <advance width="1118"/>
  <unicode hex="F8E9"/>
  <outline>
    <contour>
      <point x="558" y="1592" type="curve" smooth="yes"/>
      <point x="302" y="1592"/>
      <point x="96" y="1386"/>
      <point x="96" y="1130" type="curve" smooth="yes"/>
      <point x="96" y="874"/>
      <point x="302" y="668"/>
      <point x="558" y="668" type="curve" smooth="yes"/>
      <point x="814" y="668"/>
      <point x="1020" y="874"/>
      <point x="1020" y="1130" type="curve" smooth="yes"/>
      <point x="1020" y="1386"/>
      <point x="814" y="1592"/>
    </contour>
    <contour>
      <point x="558" y="670" type="curve" smooth="yes"/>
      <point x="305" y="670"/>
      <point x="98" y="877"/>
      <point x="98" y="1130" type="curve" smooth="yes"/>
      <point x="98" y="1383"/>
      <point x="305" y="1590"/>
      <point x="558" y="1590" type="curve" smooth="yes"/>
      <point x="811" y="1590"/>
      <point x="1018" y="1383"/>
      <point x="1018" y="1130" type="curve" smooth="yes"/>
      <point x="1018" y="877"/>
      <point x="811" y="670"/>
    </contour>
    <contour>
      <point x="573" y="856" type="curve" smooth="yes"/>
      <point x="484" y="856"/>
      <point x="461" y="999"/>
      <point x="461" y="1130" type="curve" smooth="yes"/>
      <point x="461" y="1261"/>
      <point x="484" y="1404"/>
      <point x="573" y="1404" type="curve" smooth="yes"/>
      <point x="655" y="1404"/>
      <point x="706" y="1329"/>
      <point x="754" y="1231" type="curve"/>
      <point x="757" y="1231" type="line"/>
      <point x="757" y="1400" type="line"/>
      <point x="755" y="1400" type="line"/>
      <point x="667" y="1368" type="line"/>
      <point x="639" y="1393"/>
      <point x="607" y="1407"/>
      <point x="566" y="1407" type="curve" smooth="yes"/>
      <point x="391" y="1407"/>
      <point x="292" y="1291"/>
      <point x="292" y="1130" type="curve" smooth="yes"/>
      <point x="292" y="969"/>
      <point x="391" y="853"/>
      <point x="566" y="853" type="curve" smooth="yes"/>
      <point x="615" y="853"/>
      <point x="652" y="869"/>
      <point x="682" y="897" type="curve"/>
      <point x="763" y="860" type="line"/>
      <point x="764" y="860" type="line"/>
      <point x="764" y="1029" type="line"/>
      <point x="761" y="1029" type="line"/>
      <point x="721" y="934"/>
      <point x="670" y="856"/>
    </contour>
  </outline>
</glyph>
<glyph name="a.sc" format="2">
  <advance width="1242"/>
  <anchor x="458" y="0" name="bottom"/>
  <anchor x="918" y="0" name="ogonek"/>
  <anchor x="584" y="1012" name="top"/>
  <outline>
    <contour>
      <point x="100" y="0" type="line"/>
      <point x="104" y="0" type="line"/>
      <point x="377" y="627" type="line"/>
      <point x="652" y="0" type="line"/>
      <point x="1152" y="0" type="line"/>
      <point x="712" y="1040" type="line"/>
      <point x="552" y="1040" type="line"/>
    </contour>
    <contour>
      <point x="0" y="0" type="line"/>
      <point x="274" y="0" type="line"/>
      <point x="274" y="4" type="line"/>
      <point x="0" y="4" type="line"/>
    </contour>
    <contour>
      <point x="221" y="270" type="line"/>
      <point x="810" y="270" type="line"/>
      <point x="810" y="274" type="line"/>
      <point x="221" y="274" type="line"/>
    </contour>
    <contour>
      <point x="478" y="0" type="line"/>
      <point x="1242" y="0" type="line"/>
      <point x="1242" y="4" type="line"/>
      <point x="478" y="4" type="line"/>
    </contour>
  </outline>
</glyph>
<glyph name="c.sc" format="2">
  <advance width="1188"/>
  <anchor x="626" y="0" name="bottom"/>
  <anchor x="659" y="1020" name="top"/>
  <outline>
    <contour>
      <point x="649" y="-20" type="curve" smooth="yes"/>
      <point x="734" y="-20"/>
      <point x="797" y="22"/>
      <point x="845" y="79" type="curve"/>
      <point x="990" y="0" type="line"/>
      <point x="994" y="0" type="line"/>
      <point x="994" y="360" type="line"/>
      <point x="990" y="360" type="line"/>
      <point x="930" y="236"/>
      <point x="847" y="12"/>
      <point x="719" y="12" type="curve" smooth="yes"/>
      <point x="561" y="12"/>
      <point x="529" y="197"/>
      <point x="529" y="510" type="curve" smooth="yes"/>
      <point x="529" y="823"/>
      <point x="560" y="998"/>
      <point x="706" y="998" type="curve" smooth="yes"/>
      <point x="832" y="998"/>
      <point x="909" y="809"/>
      <point x="979" y="660" type="curve"/>
      <point x="983" y="660" type="line"/>
      <point x="983" y="1020" type="line"/>
      <point x="979" y="1020" type="line"/>
      <point x="826" y="944" type="line"/>
      <point x="771" y="1006"/>
      <point x="694" y="1040"/>
      <point x="588" y="1040" type="curve" smooth="yes"/>
      <point x="373" y="1040"/>
      <point x="100" y="905"/>
      <point x="100" y="510" type="curve" smooth="yes"/>
      <point x="100" y="115"/>
      <point x="363" y="-20"/>
    </contour>
  </outline>
</glyph>
<glyph name="e.sc" format="2">
  <advance width="1218"/>
  <anchor x="735" y="0" name="bottom"/>
  <anchor x="955" y="0" name="ogonek"/>
  <anchor x="663" y="1020" name="top"/>
  <outline>
    <contour>
      <point x="875" y="377" type="curve"/>
      <point x="879" y="377" type="line"/>
      <point x="879" y="706" type="line"/>
      <point x="875" y="706" type="line"/>
      <point x="835" y="602"/>
      <point x="718" y="547"/>
      <point x="665" y="547" type="curve" smooth="yes"/>
      <point x="555" y="547" type="line"/>
      <point x="555" y="543" type="line"/>
      <point x="665" y="543" type="line" smooth="yes"/>
      <point x="718" y="543"/>
      <point x="835" y="481"/>
    </contour>
    <contour>
      <point x="1103" y="350" type="line"/>
      <point x="1055" y="146"/>
      <point x="919" y="4"/>
      <point x="745" y="4" type="curve" smooth="yes"/>
      <point x="646" y="4" type="line"/>
      <point x="646" y="1016" type="line"/>
      <point x="776" y="1016" type="line" smooth="yes"/>
      <point x="910" y="1016"/>
      <point x="1044" y="874"/>
      <point x="1094" y="710" type="curve"/>
      <point x="1099" y="710" type="line"/>
      <point x="1099" y="1020" type="line"/>
      <point x="85" y="1020" type="line"/>
      <point x="85" y="1016" type="line"/>
      <point x="216" y="1016" type="line"/>
      <point x="216" y="4" type="line"/>
      <point x="85" y="4" type="line"/>
      <point x="85" y="0" type="line"/>
      <point x="1108" y="0" type="line"/>
      <point x="1108" y="350" type="line"/>
    </contour>
  </outline>
</glyph>
<glyph name="f.sc" format="2">
  <advance width="1138"/>
  <anchor x="445" y="0" name="bottom"/>
  <anchor x="753" y="1020" name="top"/>
  <outline>
    <contour>
      <point x="895" y="346" type="curve"/>
      <point x="899" y="346" type="line"/>
      <point x="899" y="655" type="line"/>
      <point x="895" y="655" type="line"/>
      <point x="845" y="571"/>
      <point x="750" y="508"/>
      <point x="676" y="508" type="curve" smooth="yes"/>
      <point x="565" y="508" type="line"/>
      <point x="565" y="504" type="line"/>
      <point x="676" y="504" type="line" smooth="yes"/>
      <point x="750" y="504"/>
      <point x="845" y="430"/>
    </contour>
    <contour>
      <point x="1078" y="1020" type="line"/>
      <point x="85" y="1020" type="line"/>
      <point x="85" y="1016" type="line"/>
      <point x="216" y="1016" type="line"/>
      <point x="216" y="4" type="line"/>
      <point x="85" y="4" type="line"/>
      <point x="85" y="0" type="line"/>
      <point x="795" y="0" type="line"/>
      <point x="795" y="4" type="line"/>
      <point x="646" y="4" type="line"/>
      <point x="646" y="1016" type="line"/>
      <point x="765" y="1016" type="line" smooth="yes"/>
      <point x="879" y="1016"/>
      <point x="1024" y="894"/>
      <point x="1074" y="710" type="curve"/>
      <point x="1078" y="710" type="line"/>
    </contour>
  </outline>
</glyph>
<glyph name="f_f" format="2">
  <advance width="1540"/>
  <outline>
    <contour>
      <point x="1456" y="1520" type="curve" smooth="yes"/>
      <point x="1126" y="1520"/>
      <point x="882" y="1325"/>
      <point x="882" y="1023" type="curve" smooth="yes"/>
      <point x="882" y="920" type="line"/>
      <point x="22" y="920" type="line"/>
      <point x="22" y="916" type="line"/>
      <point x="882" y="916" type="line"/>
      <point x="882" y="4" type="line"/>
      <point x="22" y="4" type="line"/>
      <point x="22" y="0" type="line"/>
      <point x="1482" y="0" type="line"/>
      <point x="1482" y="4" type="line"/>
      <point x="1242" y="4" type="line"/>
      <point x="1242" y="916" type="line"/>
      <point x="1522" y="916" type="line"/>
      <point x="1522" y="920" type="line"/>
      <point x="1242" y="920" type="line"/>
      <point x="1242" y="1080" type="line" smooth="yes"/>
      <point x="1242" y="1334"/>
      <point x="1326" y="1516"/>
      <point x="1456" y="1516" type="curve" smooth="yes"/>
      <point x="1586" y="1516"/>
      <point x="1675" y="1452"/>
      <point x="1721" y="1382" type="curve"/>
      <point x="1683" y="1429"/>
      <point x="1621" y="1458"/>
      <point x="1557" y="1458" type="curve" smooth="yes"/>
      <point x="1457" y="1458"/>
      <point x="1356" y="1377"/>
      <point x="1356" y="1257" type="curve" smooth="yes"/>
      <point x="1356" y="1127"/>
      <point x="1457" y="1058"/>
      <point x="1557" y="1058" type="curve" smooth="yes"/>
      <point x="1668" y="1058"/>
      <point x="1762" y="1140"/>
      <point x="1762" y="1272" type="curve" smooth="yes"/>
      <point x="1762" y="1366"/>
      <point x="1658" y="1520"/>
    </contour>
    <contour>
      <point x="771" y="1420" type="curve" smooth="yes"/>
      <point x="451" y="1420"/>
      <point x="202" y="1215"/>
      <point x="202" y="923" type="curve" smooth="yes"/>
      <point x="202" y="0" type="line"/>
      <point x="562" y="0" type="line"/>
      <point x="562" y="980" type="line" smooth="yes"/>
      <point x="562" y="1234"/>
      <point x="641" y="1415"/>
      <point x="791" y="1415" type="curve" smooth="yes"/>
      <point x="901" y="1415"/>
      <point x="1058" y="1350"/>
      <point x="1105" y="1238" type="curve"/>
      <point x="1073" y="1304"/>
      <point x="996" y="1348"/>
      <point x="917" y="1348" type="curve" smooth="yes"/>
      <point x="817" y="1348"/>
      <point x="716" y="1257"/>
      <point x="716" y="1157" type="curve" smooth="yes"/>
      <point x="716" y="1027"/>
      <point x="817" y="958"/>
      <point x="917" y="958" type="curve" smooth="yes"/>
      <point x="1028" y="958"/>
      <point x="1122" y="1040"/>
      <point x="1122" y="1172" type="curve" smooth="yes"/>
      <point x="1122" y="1306"/>
      <point x="953" y="1420"/>
    </contour>
  </outline>
</glyph>
<glyph name="i.sc" format="2">
  <advance width="960"/>
  <anchor x="471" y="0" name="bottom"/>
  <anchor x="471" y="0" name="cedilla"/>
  <anchor x="475" y="1020" name="top"/>
  <outline>
    <contour>
      <point x="256" y="0" type="line"/>
      <point x="685" y="0" type="line"/>
      <point x="685" y="1020" type="line"/>
      <point x="256" y="1020" type="line"/>
    </contour>
    <contour>
      <point x="85" y="0" type="line"/>
      <point x="875" y="0" type="line"/>
      <point x="875" y="4" type="line"/>
      <point x="85" y="4" type="line"/>
    </contour>
    <contour>
      <point x="85" y="1016" type="line"/>
      <point x="875" y="1016" type="line"/>
      <point x="875" y="1020" type="line"/>
      <point x="85" y="1020" type="line"/>
    </contour>
  </outline>
</glyph>
<glyph name="l.sc" format="2">
  <advance width="1139"/>
  <anchor x="705" y="0" name="bottom"/>
  <anchor x="705" y="0" name="cedilla"/>
  <anchor x="404" y="460" name="center"/>
  <anchor x="413" y="1020" name="top"/>
  <anchor x="679" y="463" name="topright"/>
  <outline>
    <contour>
      <point x="85" y="0" type="line"/>
      <point x="1119" y="0" type="line"/>
      <point x="1119" y="350" type="line"/>
      <point x="1115" y="350" type="line"/>
      <point x="1015" y="156"/>
      <point x="870" y="4"/>
      <point x="656" y="4" type="curve" smooth="yes"/>
      <point x="646" y="4" type="line"/>
      <point x="646" y="1016" type="line"/>
      <point x="776" y="1016" type="line"/>
      <point x="776" y="1020" type="line"/>
      <point x="85" y="1020" type="line"/>
      <point x="85" y="1016" type="line"/>
      <point x="216" y="1016" type="line"/>
      <point x="216" y="4" type="line"/>
      <point x="85" y="4" type="line"/>
    </contour>
  </outline>
</glyph>
<glyph name="lslash.sc" format="2">
  <advance width="1139"/>
  <outline>
    <contour>
      <point x="85" y="444" type="line"/>
      <point x="856" y="734" type="line"/>
      <point x="856" y="740" type="line"/>
      <point x="85" y="451" type="line"/>
    </contour>
    <component base="l.sc"/>
  </outline>
</glyph>
<glyph name="n.sc" format="2">
  <advance width="1318"/>
  <anchor x="605" y="0" name="bottom"/>
  <anchor x="705" y="1020" name="top"/>
  <outline>
    <contour>
      <point x="986" y="-20" type="line"/>
      <point x="1087" y="-20" type="line"/>
      <point x="1087" y="1020" type="line"/>
      <point x="1083" y="1020" type="line"/>
      <point x="1083" y="514" type="line"/>
      <point x="747" y="1020" type="line"/>
      <point x="247" y="1020" type="line"/>
    </contour>
    <contour>
      <point x="85" y="0" type="line"/>
      <point x="381" y="0" type="line"/>
      <point x="381" y="4" type="line"/>
      <point x="85" y="4" type="line"/>
    </contour>
    <contour>
      <point x="246" y="0" type="line"/>
      <point x="250" y="0" type="line"/>
      <point x="250" y="1020" type="line"/>
      <point x="85" y="1020" type="line"/>
      <point x="85" y="1016" type="line"/>
      <point x="246" y="1016" type="line"/>
    </contour>
    <contour>
      <point x="912" y="1016" type="line"/>
      <point x="1248" y="1016" type="line"/>
      <point x="1248" y="1020" type="line"/>
      <point x="912" y="1020" type="line"/>
    </contour>
  </outline>
</glyph>
<glyph name="nine.osf" format="2">
  <advance width="1318"/>
  <outline>
    <contour>
      <point x="210" y="-519.961" type="line"/>
      <point x="816" y="-519.961"/>
      <point x="1220" y="-127.468"/>
      <point x="1220" y="333.284" type="curve" smooth="yes"/>
      <point x="1220" y="731.465"/>
      <point x="974" y="940.036"/>
      <point x="632" y="940.036" type="curve" smooth="yes"/>
      <point x="290" y="940.036"/>
      <point x="60" y="731.465"/>
      <point x="60" y="447.05" type="curve" smooth="yes"/>
      <point x="60" y="124.713"/>
      <point x="316" y="-17.495"/>
      <point x="558" y="-17.495" type="curve" smooth="yes"/>
      <point x="756" y="-17.495"/>
      <point x="764" y="111.44"/>
      <point x="764" y="390.167" type="curve"/>
      <point x="760" y="390.167" type="line"/>
      <point x="760" y="105.752"/>
      <point x="738" y="14.739"/>
      <point x="634" y="14.739" type="curve" smooth="yes"/>
      <point x="556" y="14.739"/>
      <point x="520" y="98.168"/>
      <point x="520" y="447.05" type="curve" smooth="yes"/>
      <point x="520" y="758.01"/>
      <point x="528" y="936.244"/>
      <point x="626" y="936.244" type="curve" smooth="yes"/>
      <point x="724" y="936.244"/>
      <point x="760" y="739.049"/>
      <point x="760" y="390.167" type="curve"/>
      <point x="760" y="276.401" type="line"/>
      <point x="760" y="-125.572"/>
      <point x="578" y="-516.169"/>
      <point x="210" y="-516.169" type="curve"/>
    </contour>
  </outline>
</glyph>
<glyph name="t.sc" format="2">
  <advance width="1297"/>
  <anchor x="670" y="0" name="bottom"/>
  <anchor x="669" y="1020" name="top"/>
  <outline>
    <contour>
      <point x="50" y="640" type="line"/>
      <point x="54" y="640" type="line"/>
      <point x="154" y="864"/>
      <point x="260" y="1016"/>
      <point x="414" y="1016" type="curve" smooth="yes"/>
      <point x="884" y="1016" type="line" smooth="yes"/>
      <point x="1038" y="1016"/>
      <point x="1143" y="864"/>
      <point x="1243" y="640" type="curve"/>
      <point x="1247" y="640" type="line"/>
      <point x="1247" y="1020" type="line"/>
      <point x="50" y="1020" type="line"/>
    </contour>
    <contour>
      <point x="263" y="0" type="line"/>
      <point x="1033" y="0" type="line"/>
      <point x="1033" y="4" type="line"/>
      <point x="263" y="4" type="line"/>
    </contour>
    <contour>
      <point x="433" y="0" type="line"/>
      <point x="864" y="0" type="line"/>
      <point x="864" y="1016" type="line"/>
      <point x="433" y="1016" type="line"/>
    </contour>
  </outline>
</glyph>
<glyph name="three.osf" format="2">
  <advance width="1240"/>
  <outline>
    <contour>
      <point x="562" y="-519.96" type="curve" smooth="yes"/>
      <point x="844" y="-519.96"/>
      <point x="1162" y="-368.283"/>
      <point x="1162" y="-121.808" type="curve" smooth="yes"/>
      <point x="1162" y="87.696"/>
      <point x="908" y="267.812"/>
      <point x="426" y="267.812" type="curve"/>
      <point x="426" y="264.968" type="line"/>
      <point x="664" y="264.968"/>
      <point x="720" y="37.453"/>
      <point x="720" y="-102.848" type="curve" smooth="yes"/>
      <point x="720" y="-337.947"/>
      <point x="650" y="-504.792"/>
      <point x="482" y="-504.792" type="curve" smooth="yes"/>
      <point x="256" y="-504.792"/>
      <point x="54" y="-337"/>
      <point x="54" y="-152.143" type="curve"/>
      <point x="52" y="-152.143" type="line"/>
      <point x="52" y="-246.941"/>
      <point x="156" y="-330.364"/>
      <point x="264" y="-330.364" type="curve" smooth="yes"/>
      <point x="373" y="-330.364"/>
      <point x="477" y="-244.097"/>
      <point x="477" y="-136.028" type="curve" smooth="yes"/>
      <point x="477" y="-20.374"/>
      <point x="381" y="63.996"/>
      <point x="270" y="63.996" type="curve" smooth="yes"/>
      <point x="150" y="63.996"/>
      <point x="50" y="-27.01"/>
      <point x="50" y="-152.143" type="curve" smooth="yes"/>
      <point x="50" y="-327.52"/>
      <point x="228" y="-519.96"/>
    </contour>
    <contour>
      <point x="426" y="265.916" type="line"/>
      <point x="888" y="265.916"/>
      <point x="1102" y="429.916"/>
      <point x="1102" y="619.512" type="curve" smooth="yes"/>
      <point x="1102" y="829.016"/>
      <point x="805" y="938.034"/>
      <point x="582" y="938.034" type="curve" smooth="yes"/>
      <point x="378" y="938.034"/>
      <point x="109" y="807.212"/>
      <point x="109" y="631.836" type="curve" smooth="yes"/>
      <point x="109" y="506.703"/>
      <point x="214" y="419.489"/>
      <point x="325" y="419.489" type="curve" smooth="yes"/>
      <point x="425" y="419.489"/>
      <point x="538" y="496.275"/>
      <point x="538" y="619.512" type="curve" smooth="yes"/>
      <point x="538" y="733.27"/>
      <point x="434" y="814.796"/>
      <point x="325" y="814.796" type="curve" smooth="yes"/>
      <point x="224" y="814.796"/>
      <point x="111" y="736.114"/>
      <point x="111" y="631.836" type="curve"/>
      <point x="113" y="631.836" type="line"/>
      <point x="113" y="816.692"/>
      <point x="399" y="924.762"/>
      <point x="512" y="924.762" type="curve" smooth="yes"/>
      <point x="640" y="924.762"/>
      <point x="660" y="726.634"/>
      <point x="660" y="586.333" type="curve" smooth="yes"/>
      <point x="660" y="464.992"/>
      <point x="644" y="268.76"/>
      <point x="426" y="268.76" type="curve"/>
    </contour>
  </outline>
</glyph>
<glyph name="three.tosf" format="2">
  <advance width="1400"/>
  <outline>
    <contour>
      <point x="662" y="-519.96" type="curve" smooth="yes"/>
      <point x="944" y="-519.96"/>
      <point x="1262" y="-368.283"/>
      <point x="1262" y="-121.808" type="curve" smooth="yes"/>
      <point x="1262" y="87.696"/>
      <point x="1008" y="267.812"/>
      <point x="526" y="267.812" type="curve"/>
      <point x="526" y="264.968" type="line"/>
      <point x="764" y="264.968"/>
      <point x="820" y="37.453"/>
      <point x="820" y="-102.848" type="curve" smooth="yes"/>
      <point x="820" y="-337.947"/>
      <point x="750" y="-504.792"/>
      <point x="582" y="-504.792" type="curve" smooth="yes"/>
      <point x="356" y="-504.792"/>
      <point x="154" y="-337"/>
      <point x="154" y="-152.143" type="curve"/>
      <point x="152" y="-152.143" type="line"/>
      <point x="152" y="-246.941"/>
      <point x="256" y="-330.364"/>
      <point x="364" y="-330.364" type="curve" smooth="yes"/>
      <point x="473" y="-330.364"/>
      <point x="577" y="-244.097"/>
      <point x="577" y="-136.028" type="curve" smooth="yes"/>
      <point x="577" y="-20.374"/>
      <point x="481" y="63.996"/>
      <point x="370" y="63.996" type="curve" smooth="yes"/>
      <point x="250" y="63.996"/>
      <point x="150" y="-27.01"/>
      <point x="150" y="-152.143" type="curve" smooth="yes"/>
      <point x="150" y="-327.52"/>
      <point x="328" y="-519.96"/>
    </contour>
    <contour>
      <point x="526" y="265.916" type="line"/>
      <point x="988" y="265.916"/>
      <point x="1202" y="429.916"/>
      <point x="1202" y="619.512" type="curve" smooth="yes"/>
      <point x="1202" y="829.016"/>
      <point x="905" y="938.034"/>
      <point x="682" y="938.034" type="curve" smooth="yes"/>
      <point x="478" y="938.034"/>
      <point x="209" y="807.212"/>
      <point x="209" y="631.836" type="curve" smooth="yes"/>
      <point x="209" y="506.703"/>
      <point x="314" y="419.489"/>
      <point x="425" y="419.489" type="curve" smooth="yes"/>
      <point x="525" y="419.489"/>
      <point x="638" y="496.275"/>
      <point x="638" y="619.512" type="curve" smooth="yes"/>
      <point x="638" y="733.27"/>
      <point x="534" y="814.796"/>
      <point x="425" y="814.796" type="curve" smooth="yes"/>
      <point x="324" y="814.796"/>
      <point x="211" y="736.114"/>
      <point x="211" y="631.836" type="curve"/>
      <point x="213" y="631.836" type="line"/>
      <point x="213" y="816.692"/>
      <point x="499" y="924.762"/>
      <point x="612" y="924.762" type="curve" smooth="yes"/>
      <point x="740" y="924.762"/>
      <point x="760" y="726.634"/>
      <point x="760" y="586.333" type="curve" smooth="yes"/>
      <point x="760" y="464.992"/>
      <point x="744" y="268.76"/>
      <point x="526" y="268.76" type="curve"/>
    </contour>
  </outline>
</glyph>
<glyph name="u.sc" format="2">
  <advance width="1186"/>
  <anchor x="708" y="0" name="bottom"/>
  <anchor x="708" y="0" name="cedilla"/>
  <anchor x="736" y="1020" name="top"/>
  <outline>
    <contour>
      <point x="672" y="-28" type="curve" smooth="yes"/>
      <point x="968" y="-28"/>
      <point x="1008" y="130"/>
      <point x="1008" y="360" type="curve" smooth="yes"/>
      <point x="1008" y="1020" type="line"/>
      <point x="1004" y="1020" type="line"/>
      <point x="1004" y="360" type="line" smooth="yes"/>
      <point x="1004" y="156"/>
      <point x="968" y="11"/>
      <point x="792" y="11" type="curve" smooth="yes"/>
      <point x="634" y="11"/>
      <point x="612" y="186"/>
      <point x="612" y="350" type="curve" smooth="yes"/>
      <point x="612" y="1020" type="line"/>
      <point x="182" y="1020" type="line"/>
      <point x="182" y="360" type="line" smooth="yes"/>
      <point x="182" y="114"/>
      <point x="266" y="-28"/>
    </contour>
    <contour>
      <point x="50" y="1016" type="line"/>
      <point x="762" y="1016" type="line"/>
      <point x="762" y="1020" type="line"/>
      <point x="50" y="1020" type="line"/>
    </contour>
    <contour>
      <point x="886" y="1016" type="line"/>
      <point x="1136" y="1016" type="line"/>
      <point x="1136" y="1020" type="line"/>
      <point x="886" y="1020" type="line"/>
    </contour>
  </outline>
</glyph>
<glyph name="y.sc" format="2">
  <advance width="1310"/>
  <anchor x="636" y="0" name="bottom"/>
  <anchor x="714" y="1020" name="top"/>
  <outline>
    <contour>
      <point x="430" y="0" type="line"/>
      <point x="860" y="0" type="line"/>
      <point x="860" y="464" type="line"/>
      <point x="1187" y="1016" type="line"/>
      <point x="1182" y="1016" type="line"/>
      <point x="858" y="469" type="line"/>
      <point x="580" y="1020" type="line"/>
      <point x="90" y="1020" type="line"/>
      <point x="430" y="450" type="line"/>
    </contour>
    <contour>
      <point x="302" y="0" type="line"/>
      <point x="1010" y="0" type="line"/>
      <point x="1010" y="4" type="line"/>
      <point x="302" y="4" type="line"/>
    </contour>
    <contour>
      <point x="0" y="1016" type="line"/>
      <point x="720" y="1016" type="line"/>
      <point x="720" y="1020" type="line"/>
      <point x="0" y="1020" type="line"/>
    </contour>
    <contour>
      <point x="1020" y="1016" type="line"/>
      <point x="1290" y="1016" type="line"/>
      <point x="1290" y="1020" type="line"/>
      <point x="1020" y="1020" type="line"/>
    </contour>
  </outline>
</glyph>
<glyph name="zero.tf" format="2">
  <advance width="1400"/>
  <outline>
    <contour>
      <point x="700" y="-20" type="curve" smooth="yes"/>
      <point x="1066" y="-20"/>
      <point x="1320" y="304"/>
      <point x="1320" y="750" type="curve" smooth="yes"/>
      <point x="1320" y="1196"/>
      <point x="1046" y="1520"/>
      <point x="700" y="1520" type="curve" smooth="yes"/>
      <point x="354" y="1520"/>
      <point x="80" y="1196"/>
      <point x="80" y="750" type="curve" smooth="yes"/>
      <point x="80" y="304"/>
      <point x="334" y="-20"/>
    </contour>
    <contour>
      <point x="700" y="-16" type="curve" smooth="yes"/>
      <point x="552" y="-16"/>
      <point x="550" y="286"/>
      <point x="550" y="750" type="curve" smooth="yes"/>
      <point x="550" y="1214"/>
      <point x="572" y="1516"/>
      <point x="700" y="1516" type="curve" smooth="yes"/>
      <point x="848" y="1516"/>
      <point x="850" y="1214"/>
      <point x="850" y="750" type="curve" smooth="yes"/>
      <point x="850" y="286"/>
      <point x="848" y="-16"/>
    </contour>
  </outline>
</glyph>
